<?xml version="1.0" standalone="no"?>
 <!DOCTYPE svg PUBLIC "-//W3C//DTD SVG 1.1//EN" 
 "http://www.w3.org/Graphics/SVG/1.1/DTD/svg11.dtd"> 
<svg
  xmlns:svg="http://www.w3.org/2000/svg"
  xmlns="http://www.w3.org/2000/svg"
  xmlns:xlink="http://www.w3.org/1999/xlink"
  version="1.1"
  width="297.0022mm" height="210.0072mm" viewBox="0.0000 0.0000 297.0022 210.0072">
<title>SVG Image created as KA1119-NPTH-drl_map.svg date 2023/05/13 15:44:41 </title>
  <desc>Image generated by PCBNEW </desc>
<g style="fill:#000000; fill-opacity:1.0000;stroke:#000000; stroke-opacity:1.0000;
stroke-linecap:round; stroke-linejoin:round;"
 transform="translate(0 0) scale(1 1)">
</g>
<g style="fill:#000000; fill-opacity:0.0; 
stroke:#000000; stroke-width:0.0000; stroke-opacity:1; 
stroke-linecap:round; stroke-linejoin:round;">
</g>
<g style="fill:#000000; fill-opacity:0.0; 
stroke:#000000; stroke-width:0.3000; stroke-opacity:1; 
stroke-linecap:round; stroke-linejoin:round;">
<path d="M85.4774 42.7910
L85.4948 83.2136
" />
<path d="M94.5373 33.7137
L202.4475 33.7136
" />
<path d="M211.5248 83.2135
L211.5248 42.7735
" />
<path d="M94.5720 92.2735
L202.4649 92.2907
" />
<path d="M211.5248 42.7735 A9.0686 9.0686 0.0 0 0 202.4475 33.7136" />
<path d="M202.4649 92.2907 A9.0686 9.0686 0.0 0 0 211.5248 83.2135" />
<path d="M85.4948 83.2136 A9.0686 9.0686 0.0 0 0 94.5720 92.2735" />
<path d="M94.5373 33.7137 A9.0686 9.0686 0.0 0 0 85.4774 42.7910" />
</g>
<g style="fill:#000000; fill-opacity:0.0; 
stroke:#000000; stroke-width:0.6000; stroke-opacity:1; 
stroke-linecap:round; stroke-linejoin:round;">
</g>
<g style="fill:#000000; fill-opacity:0.0; 
stroke:#000000; stroke-width:0.2000; stroke-opacity:1; 
stroke-linecap:round; stroke-linejoin:round;">
<text x="87.3274" y="95.6407"
textLength="14.7667" font-size="2.6667" lengthAdjust="spacingAndGlyphs"
text-anchor="start" opacity="0">Drill Map:</text>
<g class="stroked-text"><desc>Drill Map:</desc>
<path d="M87.8036 95.5660
L87.8036 93.5660
" />
<path d="M87.8036 93.5660
L88.2798 93.5660
" />
<path d="M88.2798 93.5660
L88.5655 93.6612
" />
<path d="M88.5655 93.6612
L88.7560 93.8517
" />
<path d="M88.7560 93.8517
L88.8512 94.0421
" />
<path d="M88.8512 94.0421
L88.9465 94.4231
" />
<path d="M88.9465 94.4231
L88.9465 94.7088
" />
<path d="M88.9465 94.7088
L88.8512 95.0898
" />
<path d="M88.8512 95.0898
L88.7560 95.2802
" />
<path d="M88.7560 95.2802
L88.5655 95.4707
" />
<path d="M88.5655 95.4707
L88.2798 95.5660
" />
<path d="M88.2798 95.5660
L87.8036 95.5660
" />
<path d="M89.8036 95.5660
L89.8036 94.2326
" />
<path d="M89.8036 94.6136
L89.8988 94.4231
" />
<path d="M89.8988 94.4231
L89.9941 94.3279
" />
<path d="M89.9941 94.3279
L90.1846 94.2326
" />
<path d="M90.1846 94.2326
L90.3750 94.2326
" />
<path d="M91.0417 95.5660
L91.0417 94.2326
" />
<path d="M91.0417 93.5660
L90.9465 93.6612
" />
<path d="M90.9465 93.6612
L91.0417 93.7564
" />
<path d="M91.0417 93.7564
L91.1369 93.6612
" />
<path d="M91.1369 93.6612
L91.0417 93.5660
" />
<path d="M91.0417 93.5660
L91.0417 93.7564
" />
<path d="M92.2798 95.5660
L92.0893 95.4707
" />
<path d="M92.0893 95.4707
L91.9941 95.2802
" />
<path d="M91.9941 95.2802
L91.9941 93.5660
" />
<path d="M93.3274 95.5660
L93.1369 95.4707
" />
<path d="M93.1369 95.4707
L93.0417 95.2802
" />
<path d="M93.0417 95.2802
L93.0417 93.5660
" />
<path d="M95.6131 95.5660
L95.6131 93.5660
" />
<path d="M95.6131 93.5660
L96.2798 94.9945
" />
<path d="M96.2798 94.9945
L96.9465 93.5660
" />
<path d="M96.9465 93.5660
L96.9465 95.5660
" />
<path d="M98.7560 95.5660
L98.7560 94.5183
" />
<path d="M98.7560 94.5183
L98.6607 94.3279
" />
<path d="M98.6607 94.3279
L98.4703 94.2326
" />
<path d="M98.4703 94.2326
L98.0893 94.2326
" />
<path d="M98.0893 94.2326
L97.8988 94.3279
" />
<path d="M98.7560 95.4707
L98.5655 95.5660
" />
<path d="M98.5655 95.5660
L98.0893 95.5660
" />
<path d="M98.0893 95.5660
L97.8988 95.4707
" />
<path d="M97.8988 95.4707
L97.8036 95.2802
" />
<path d="M97.8036 95.2802
L97.8036 95.0898
" />
<path d="M97.8036 95.0898
L97.8988 94.8993
" />
<path d="M97.8988 94.8993
L98.0893 94.8041
" />
<path d="M98.0893 94.8041
L98.5655 94.8041
" />
<path d="M98.5655 94.8041
L98.7560 94.7088
" />
<path d="M99.7084 94.2326
L99.7084 96.2326
" />
<path d="M99.7084 94.3279
L99.8988 94.2326
" />
<path d="M99.8988 94.2326
L100.2798 94.2326
" />
<path d="M100.2798 94.2326
L100.4703 94.3279
" />
<path d="M100.4703 94.3279
L100.5655 94.4231
" />
<path d="M100.5655 94.4231
L100.6607 94.6136
" />
<path d="M100.6607 94.6136
L100.6607 95.1850
" />
<path d="M100.6607 95.1850
L100.5655 95.3755
" />
<path d="M100.5655 95.3755
L100.4703 95.4707
" />
<path d="M100.4703 95.4707
L100.2798 95.5660
" />
<path d="M100.2798 95.5660
L99.8988 95.5660
" />
<path d="M99.8988 95.5660
L99.7084 95.4707
" />
<path d="M101.5179 95.3755
L101.6131 95.4707
" />
<path d="M101.6131 95.4707
L101.5179 95.5660
" />
<path d="M101.5179 95.5660
L101.4227 95.4707
" />
<path d="M101.4227 95.4707
L101.5179 95.3755
" />
<path d="M101.5179 95.3755
L101.5179 95.5660
" />
<path d="M101.5179 94.3279
L101.6131 94.4231
" />
<path d="M101.6131 94.4231
L101.5179 94.5183
" />
<path d="M101.5179 94.5183
L101.4227 94.4231
" />
<path d="M101.4227 94.4231
L101.5179 94.3279
" />
<path d="M101.5179 94.3279
L101.5179 94.5183
" />
</g></g> 
</svg>
