<?xml version="1.0" standalone="no"?>
 <!DOCTYPE svg PUBLIC "-//W3C//DTD SVG 1.1//EN" 
 "http://www.w3.org/Graphics/SVG/1.1/DTD/svg11.dtd"> 
<svg
  xmlns:svg="http://www.w3.org/2000/svg"
  xmlns="http://www.w3.org/2000/svg"
  xmlns:xlink="http://www.w3.org/1999/xlink"
  version="1.1"
  width="297.0022mm" height="210.0072mm" viewBox="0.0000 0.0000 297.0022 210.0072">
<title>SVG Image created as KA1119-PTH-drl_map.svg date 2023/05/13 15:44:41 </title>
  <desc>Image generated by PCBNEW </desc>
<g style="fill:#000000; fill-opacity:1.0000;stroke:#000000; stroke-opacity:1.0000;
stroke-linecap:round; stroke-linejoin:round;"
 transform="translate(0 0) scale(1 1)">
</g>
<g style="fill:#000000; fill-opacity:0.0; 
stroke:#000000; stroke-width:0.0000; stroke-opacity:1; 
stroke-linecap:round; stroke-linejoin:round;">
</g>
<g style="fill:#000000; fill-opacity:0.0; 
stroke:#000000; stroke-width:0.3000; stroke-opacity:1; 
stroke-linecap:round; stroke-linejoin:round;">
<path d="M85.4774 42.7910
L85.4948 83.2136
" />
<path d="M94.5373 33.7137
L202.4475 33.7136
" />
<path d="M211.5248 83.2135
L211.5248 42.7735
" />
<path d="M94.5720 92.2735
L202.4649 92.2907
" />
<path d="M211.5248 42.7735 A9.0686 9.0686 0.0 0 0 202.4475 33.7136" />
<path d="M202.4649 92.2907 A9.0686 9.0686 0.0 0 0 211.5248 83.2135" />
<path d="M85.4948 83.2136 A9.0686 9.0686 0.0 0 0 94.5720 92.2735" />
<path d="M94.5373 33.7137 A9.0686 9.0686 0.0 0 0 85.4774 42.7910" />
</g>
<g style="fill:#000000; fill-opacity:0.0; 
stroke:#000000; stroke-width:0.6000; stroke-opacity:1; 
stroke-linecap:round; stroke-linejoin:round;">
</g>
<g style="fill:#000000; fill-opacity:0.0; 
stroke:#000000; stroke-width:0.1200; stroke-opacity:1; 
stroke-linecap:round; stroke-linejoin:round;">
<path d="M108.2948 59.3635
L109.4948 60.5635
" />
<path d="M109.4948 59.3635
L108.2948 60.5635
" />
<path d="M116.8748 45.9535
L118.0748 47.1535
" />
<path d="M118.0748 45.9535
L116.8748 47.1535
" />
<path d="M122.7548 59.4535
L123.9548 60.6535
" />
<path d="M123.9548 59.4535
L122.7548 60.6535
" />
<path d="M126.8348 48.5635
L128.0348 49.7635
" />
<path d="M128.0348 48.5635
L126.8348 49.7635
" />
</g>
<g style="fill:#000000; fill-opacity:0.0; 
stroke:#000000; stroke-width:0.1800; stroke-opacity:1; 
stroke-linecap:round; stroke-linejoin:round;">
<circle cx="91.2848" cy="48.1135" r="0.9000" /> 
<circle cx="95.7848" cy="48.1135" r="0.9000" /> 
<circle cx="137.7248" cy="79.1035" r="0.9000" /> 
<circle cx="142.2248" cy="79.1035" r="0.9000" /> 
</g>
<g style="fill:#000000; fill-opacity:0.0; 
stroke:#000000; stroke-width:0.1950; stroke-opacity:1; 
stroke-linecap:round; stroke-linejoin:round;">
<path d="M96.1748 77.7685
L96.1748 79.7185
" />
<path d="M95.1998 78.7435
L97.1498 78.7435
" />
<path d="M96.1748 81.5785
L96.1748 83.5285
" />
<path d="M95.1998 82.5535
L97.1498 82.5535
" />
</g>
<g style="fill:#000000; fill-opacity:0.0; 
stroke:#000000; stroke-width:0.2100; stroke-opacity:1; 
stroke-linecap:round; stroke-linejoin:round;">
<path style="fill:#000000; fill-opacity:0.0; 
stroke:#000000; stroke-width:0.2100; stroke-opacity:1; 
stroke-linecap:round; stroke-linejoin:round;fill:none"
d="M 196.9073,46.9659
196.9073,45.4810
195.4223,45.4810
195.4223,46.9659
Z" /> 
<path style="fill:#000000; fill-opacity:0.0; 
stroke:#000000; stroke-width:0.2100; stroke-opacity:1; 
stroke-linecap:round; stroke-linejoin:round;fill:none"
d="M 196.9073,50.7759
196.9073,49.2910
195.4223,49.2910
195.4223,50.7759
Z" /> 
<path style="fill:#000000; fill-opacity:0.0; 
stroke:#000000; stroke-width:0.2100; stroke-opacity:1; 
stroke-linecap:round; stroke-linejoin:round;fill:none"
d="M 196.9073,54.5859
196.9073,53.1010
195.4223,53.1010
195.4223,54.5859
Z" /> 
</g>
<g style="fill:#000000; fill-opacity:0.0; 
stroke:#000000; stroke-width:0.3300; stroke-opacity:1; 
stroke-linecap:round; stroke-linejoin:round;">
<path style="fill:#000000; fill-opacity:0.0; 
stroke:#000000; stroke-width:0.3300; stroke-opacity:1; 
stroke-linecap:round; stroke-linejoin:round;fill:none"
d="M 106.2848,70.4935
107.9348,68.8435
106.2848,67.1935
104.6348,68.8435
Z" /> 
<path style="fill:#000000; fill-opacity:0.0; 
stroke:#000000; stroke-width:0.3300; stroke-opacity:1; 
stroke-linecap:round; stroke-linejoin:round;fill:none"
d="M 106.2848,83.9935
107.9348,82.3435
106.2848,80.6935
104.6348,82.3435
Z" /> 
<path style="fill:#000000; fill-opacity:0.0; 
stroke:#000000; stroke-width:0.3300; stroke-opacity:1; 
stroke-linecap:round; stroke-linejoin:round;fill:none"
d="M 125.7848,70.4935
127.4348,68.8435
125.7848,67.1935
124.1348,68.8435
Z" /> 
<path style="fill:#000000; fill-opacity:0.0; 
stroke:#000000; stroke-width:0.3300; stroke-opacity:1; 
stroke-linecap:round; stroke-linejoin:round;fill:none"
d="M 125.7848,83.9935
127.4348,82.3435
125.7848,80.6935
124.1348,82.3435
Z" /> 
</g>
<g style="fill:#000000; fill-opacity:0.0; 
stroke:#000000; stroke-width:0.6000; stroke-opacity:1; 
stroke-linecap:round; stroke-linejoin:round;">
</g>
<g style="fill:#000000; fill-opacity:0.0; 
stroke:#000000; stroke-width:0.2000; stroke-opacity:1; 
stroke-linecap:round; stroke-linejoin:round;">
<text x="87.3274" y="95.6407"
textLength="14.7667" font-size="2.6667" lengthAdjust="spacingAndGlyphs"
text-anchor="start" opacity="0">Drill Map:</text>
<g class="stroked-text"><desc>Drill Map:</desc>
<path d="M87.8036 95.5660
L87.8036 93.5660
" />
<path d="M87.8036 93.5660
L88.2798 93.5660
" />
<path d="M88.2798 93.5660
L88.5655 93.6612
" />
<path d="M88.5655 93.6612
L88.7560 93.8517
" />
<path d="M88.7560 93.8517
L88.8512 94.0421
" />
<path d="M88.8512 94.0421
L88.9465 94.4231
" />
<path d="M88.9465 94.4231
L88.9465 94.7088
" />
<path d="M88.9465 94.7088
L88.8512 95.0898
" />
<path d="M88.8512 95.0898
L88.7560 95.2802
" />
<path d="M88.7560 95.2802
L88.5655 95.4707
" />
<path d="M88.5655 95.4707
L88.2798 95.5660
" />
<path d="M88.2798 95.5660
L87.8036 95.5660
" />
<path d="M89.8036 95.5660
L89.8036 94.2326
" />
<path d="M89.8036 94.6136
L89.8988 94.4231
" />
<path d="M89.8988 94.4231
L89.9941 94.3279
" />
<path d="M89.9941 94.3279
L90.1846 94.2326
" />
<path d="M90.1846 94.2326
L90.3750 94.2326
" />
<path d="M91.0417 95.5660
L91.0417 94.2326
" />
<path d="M91.0417 93.5660
L90.9465 93.6612
" />
<path d="M90.9465 93.6612
L91.0417 93.7564
" />
<path d="M91.0417 93.7564
L91.1369 93.6612
" />
<path d="M91.1369 93.6612
L91.0417 93.5660
" />
<path d="M91.0417 93.5660
L91.0417 93.7564
" />
<path d="M92.2798 95.5660
L92.0893 95.4707
" />
<path d="M92.0893 95.4707
L91.9941 95.2802
" />
<path d="M91.9941 95.2802
L91.9941 93.5660
" />
<path d="M93.3274 95.5660
L93.1369 95.4707
" />
<path d="M93.1369 95.4707
L93.0417 95.2802
" />
<path d="M93.0417 95.2802
L93.0417 93.5660
" />
<path d="M95.6131 95.5660
L95.6131 93.5660
" />
<path d="M95.6131 93.5660
L96.2798 94.9945
" />
<path d="M96.2798 94.9945
L96.9465 93.5660
" />
<path d="M96.9465 93.5660
L96.9465 95.5660
" />
<path d="M98.7560 95.5660
L98.7560 94.5183
" />
<path d="M98.7560 94.5183
L98.6607 94.3279
" />
<path d="M98.6607 94.3279
L98.4703 94.2326
" />
<path d="M98.4703 94.2326
L98.0893 94.2326
" />
<path d="M98.0893 94.2326
L97.8988 94.3279
" />
<path d="M98.7560 95.4707
L98.5655 95.5660
" />
<path d="M98.5655 95.5660
L98.0893 95.5660
" />
<path d="M98.0893 95.5660
L97.8988 95.4707
" />
<path d="M97.8988 95.4707
L97.8036 95.2802
" />
<path d="M97.8036 95.2802
L97.8036 95.0898
" />
<path d="M97.8036 95.0898
L97.8988 94.8993
" />
<path d="M97.8988 94.8993
L98.0893 94.8041
" />
<path d="M98.0893 94.8041
L98.5655 94.8041
" />
<path d="M98.5655 94.8041
L98.7560 94.7088
" />
<path d="M99.7084 94.2326
L99.7084 96.2326
" />
<path d="M99.7084 94.3279
L99.8988 94.2326
" />
<path d="M99.8988 94.2326
L100.2798 94.2326
" />
<path d="M100.2798 94.2326
L100.4703 94.3279
" />
<path d="M100.4703 94.3279
L100.5655 94.4231
" />
<path d="M100.5655 94.4231
L100.6607 94.6136
" />
<path d="M100.6607 94.6136
L100.6607 95.1850
" />
<path d="M100.6607 95.1850
L100.5655 95.3755
" />
<path d="M100.5655 95.3755
L100.4703 95.4707
" />
<path d="M100.4703 95.4707
L100.2798 95.5660
" />
<path d="M100.2798 95.5660
L99.8988 95.5660
" />
<path d="M99.8988 95.5660
L99.7084 95.4707
" />
<path d="M101.5179 95.3755
L101.6131 95.4707
" />
<path d="M101.6131 95.4707
L101.5179 95.5660
" />
<path d="M101.5179 95.5660
L101.4227 95.4707
" />
<path d="M101.4227 95.4707
L101.5179 95.3755
" />
<path d="M101.5179 95.3755
L101.5179 95.5660
" />
<path d="M101.5179 94.3279
L101.6131 94.4231
" />
<path d="M101.6131 94.4231
L101.5179 94.5183
" />
<path d="M101.5179 94.5183
L101.4227 94.4231
" />
<path d="M101.4227 94.4231
L101.5179 94.3279
" />
<path d="M101.5179 94.3279
L101.5179 94.5183
" />
</g></g>
<g style="fill:#000000; fill-opacity:0.0; 
stroke:#000000; stroke-width:0.1200; stroke-opacity:1; 
stroke-linecap:round; stroke-linejoin:round;">
<path d="M84.1274 98.2407
L85.3274 99.4407
" />
<path d="M85.3274 98.2407
L84.1274 99.4407
" />
</g>
<g style="fill:#000000; fill-opacity:0.0; 
stroke:#000000; stroke-width:0.6000; stroke-opacity:1; 
stroke-linecap:round; stroke-linejoin:round;">
</g>
<g style="fill:#000000; fill-opacity:0.0; 
stroke:#000000; stroke-width:0.2000; stroke-opacity:1; 
stroke-linecap:round; stroke-linejoin:round;">
<text x="87.3274" y="99.8407"
textLength="46.7667" font-size="2.6667" lengthAdjust="spacingAndGlyphs"
text-anchor="start" opacity="0">0.400mm / 0.0157" (4 holes)</text>
<g class="stroked-text"><desc>0.400mm / 0.0157" (4 holes)</desc>
<path d="M88.1846 97.7660
L88.3750 97.7660
" />
<path d="M88.3750 97.7660
L88.5655 97.8612
" />
<path d="M88.5655 97.8612
L88.6607 97.9564
" />
<path d="M88.6607 97.9564
L88.7560 98.1469
" />
<path d="M88.7560 98.1469
L88.8512 98.5279
" />
<path d="M88.8512 98.5279
L88.8512 99.0041
" />
<path d="M88.8512 99.0041
L88.7560 99.3850
" />
<path d="M88.7560 99.3850
L88.6607 99.5755
" />
<path d="M88.6607 99.5755
L88.5655 99.6707
" />
<path d="M88.5655 99.6707
L88.3750 99.7660
" />
<path d="M88.3750 99.7660
L88.1846 99.7660
" />
<path d="M88.1846 99.7660
L87.9941 99.6707
" />
<path d="M87.9941 99.6707
L87.8988 99.5755
" />
<path d="M87.8988 99.5755
L87.8036 99.3850
" />
<path d="M87.8036 99.3850
L87.7084 99.0041
" />
<path d="M87.7084 99.0041
L87.7084 98.5279
" />
<path d="M87.7084 98.5279
L87.8036 98.1469
" />
<path d="M87.8036 98.1469
L87.8988 97.9564
" />
<path d="M87.8988 97.9564
L87.9941 97.8612
" />
<path d="M87.9941 97.8612
L88.1846 97.7660
" />
<path d="M89.7084 99.5755
L89.8036 99.6707
" />
<path d="M89.8036 99.6707
L89.7084 99.7660
" />
<path d="M89.7084 99.7660
L89.6131 99.6707
" />
<path d="M89.6131 99.6707
L89.7084 99.5755
" />
<path d="M89.7084 99.5755
L89.7084 99.7660
" />
<path d="M91.5179 98.4326
L91.5179 99.7660
" />
<path d="M91.0417 97.6707
L90.5655 99.0993
" />
<path d="M90.5655 99.0993
L91.8036 99.0993
" />
<path d="M92.9465 97.7660
L93.1369 97.7660
" />
<path d="M93.1369 97.7660
L93.3274 97.8612
" />
<path d="M93.3274 97.8612
L93.4226 97.9564
" />
<path d="M93.4226 97.9564
L93.5179 98.1469
" />
<path d="M93.5179 98.1469
L93.6131 98.5279
" />
<path d="M93.6131 98.5279
L93.6131 99.0041
" />
<path d="M93.6131 99.0041
L93.5179 99.3850
" />
<path d="M93.5179 99.3850
L93.4226 99.5755
" />
<path d="M93.4226 99.5755
L93.3274 99.6707
" />
<path d="M93.3274 99.6707
L93.1369 99.7660
" />
<path d="M93.1369 99.7660
L92.9465 99.7660
" />
<path d="M92.9465 99.7660
L92.7560 99.6707
" />
<path d="M92.7560 99.6707
L92.6607 99.5755
" />
<path d="M92.6607 99.5755
L92.5655 99.3850
" />
<path d="M92.5655 99.3850
L92.4703 99.0041
" />
<path d="M92.4703 99.0041
L92.4703 98.5279
" />
<path d="M92.4703 98.5279
L92.5655 98.1469
" />
<path d="M92.5655 98.1469
L92.6607 97.9564
" />
<path d="M92.6607 97.9564
L92.7560 97.8612
" />
<path d="M92.7560 97.8612
L92.9465 97.7660
" />
<path d="M94.8512 97.7660
L95.0417 97.7660
" />
<path d="M95.0417 97.7660
L95.2322 97.8612
" />
<path d="M95.2322 97.8612
L95.3274 97.9564
" />
<path d="M95.3274 97.9564
L95.4226 98.1469
" />
<path d="M95.4226 98.1469
L95.5179 98.5279
" />
<path d="M95.5179 98.5279
L95.5179 99.0041
" />
<path d="M95.5179 99.0041
L95.4226 99.3850
" />
<path d="M95.4226 99.3850
L95.3274 99.5755
" />
<path d="M95.3274 99.5755
L95.2322 99.6707
" />
<path d="M95.2322 99.6707
L95.0417 99.7660
" />
<path d="M95.0417 99.7660
L94.8512 99.7660
" />
<path d="M94.8512 99.7660
L94.6607 99.6707
" />
<path d="M94.6607 99.6707
L94.5655 99.5755
" />
<path d="M94.5655 99.5755
L94.4703 99.3850
" />
<path d="M94.4703 99.3850
L94.3750 99.0041
" />
<path d="M94.3750 99.0041
L94.3750 98.5279
" />
<path d="M94.3750 98.5279
L94.4703 98.1469
" />
<path d="M94.4703 98.1469
L94.5655 97.9564
" />
<path d="M94.5655 97.9564
L94.6607 97.8612
" />
<path d="M94.6607 97.8612
L94.8512 97.7660
" />
<path d="M96.3750 99.7660
L96.3750 98.4326
" />
<path d="M96.3750 98.6231
L96.4703 98.5279
" />
<path d="M96.4703 98.5279
L96.6607 98.4326
" />
<path d="M96.6607 98.4326
L96.9465 98.4326
" />
<path d="M96.9465 98.4326
L97.1369 98.5279
" />
<path d="M97.1369 98.5279
L97.2322 98.7183
" />
<path d="M97.2322 98.7183
L97.2322 99.7660
" />
<path d="M97.2322 98.7183
L97.3274 98.5279
" />
<path d="M97.3274 98.5279
L97.5179 98.4326
" />
<path d="M97.5179 98.4326
L97.8036 98.4326
" />
<path d="M97.8036 98.4326
L97.9941 98.5279
" />
<path d="M97.9941 98.5279
L98.0893 98.7183
" />
<path d="M98.0893 98.7183
L98.0893 99.7660
" />
<path d="M99.0417 99.7660
L99.0417 98.4326
" />
<path d="M99.0417 98.6231
L99.1369 98.5279
" />
<path d="M99.1369 98.5279
L99.3274 98.4326
" />
<path d="M99.3274 98.4326
L99.6131 98.4326
" />
<path d="M99.6131 98.4326
L99.8036 98.5279
" />
<path d="M99.8036 98.5279
L99.8988 98.7183
" />
<path d="M99.8988 98.7183
L99.8988 99.7660
" />
<path d="M99.8988 98.7183
L99.9941 98.5279
" />
<path d="M99.9941 98.5279
L100.1846 98.4326
" />
<path d="M100.1846 98.4326
L100.4703 98.4326
" />
<path d="M100.4703 98.4326
L100.6607 98.5279
" />
<path d="M100.6607 98.5279
L100.7560 98.7183
" />
<path d="M100.7560 98.7183
L100.7560 99.7660
" />
<path d="M104.6607 97.6707
L102.9465 100.2422
" />
<path d="M107.2322 97.7660
L107.4227 97.7660
" />
<path d="M107.4227 97.7660
L107.6131 97.8612
" />
<path d="M107.6131 97.8612
L107.7084 97.9564
" />
<path d="M107.7084 97.9564
L107.8036 98.1469
" />
<path d="M107.8036 98.1469
L107.8988 98.5279
" />
<path d="M107.8988 98.5279
L107.8988 99.0041
" />
<path d="M107.8988 99.0041
L107.8036 99.3850
" />
<path d="M107.8036 99.3850
L107.7084 99.5755
" />
<path d="M107.7084 99.5755
L107.6131 99.6707
" />
<path d="M107.6131 99.6707
L107.4227 99.7660
" />
<path d="M107.4227 99.7660
L107.2322 99.7660
" />
<path d="M107.2322 99.7660
L107.0417 99.6707
" />
<path d="M107.0417 99.6707
L106.9465 99.5755
" />
<path d="M106.9465 99.5755
L106.8512 99.3850
" />
<path d="M106.8512 99.3850
L106.7560 99.0041
" />
<path d="M106.7560 99.0041
L106.7560 98.5279
" />
<path d="M106.7560 98.5279
L106.8512 98.1469
" />
<path d="M106.8512 98.1469
L106.9465 97.9564
" />
<path d="M106.9465 97.9564
L107.0417 97.8612
" />
<path d="M107.0417 97.8612
L107.2322 97.7660
" />
<path d="M108.7560 99.5755
L108.8512 99.6707
" />
<path d="M108.8512 99.6707
L108.7560 99.7660
" />
<path d="M108.7560 99.7660
L108.6607 99.6707
" />
<path d="M108.6607 99.6707
L108.7560 99.5755
" />
<path d="M108.7560 99.5755
L108.7560 99.7660
" />
<path d="M110.0893 97.7660
L110.2798 97.7660
" />
<path d="M110.2798 97.7660
L110.4703 97.8612
" />
<path d="M110.4703 97.8612
L110.5655 97.9564
" />
<path d="M110.5655 97.9564
L110.6607 98.1469
" />
<path d="M110.6607 98.1469
L110.7560 98.5279
" />
<path d="M110.7560 98.5279
L110.7560 99.0041
" />
<path d="M110.7560 99.0041
L110.6607 99.3850
" />
<path d="M110.6607 99.3850
L110.5655 99.5755
" />
<path d="M110.5655 99.5755
L110.4703 99.6707
" />
<path d="M110.4703 99.6707
L110.2798 99.7660
" />
<path d="M110.2798 99.7660
L110.0893 99.7660
" />
<path d="M110.0893 99.7660
L109.8988 99.6707
" />
<path d="M109.8988 99.6707
L109.8036 99.5755
" />
<path d="M109.8036 99.5755
L109.7084 99.3850
" />
<path d="M109.7084 99.3850
L109.6131 99.0041
" />
<path d="M109.6131 99.0041
L109.6131 98.5279
" />
<path d="M109.6131 98.5279
L109.7084 98.1469
" />
<path d="M109.7084 98.1469
L109.8036 97.9564
" />
<path d="M109.8036 97.9564
L109.8988 97.8612
" />
<path d="M109.8988 97.8612
L110.0893 97.7660
" />
<path d="M112.6607 99.7660
L111.5179 99.7660
" />
<path d="M112.0893 99.7660
L112.0893 97.7660
" />
<path d="M112.0893 97.7660
L111.8988 98.0517
" />
<path d="M111.8988 98.0517
L111.7084 98.2422
" />
<path d="M111.7084 98.2422
L111.5179 98.3374
" />
<path d="M114.4703 97.7660
L113.5179 97.7660
" />
<path d="M113.5179 97.7660
L113.4227 98.7183
" />
<path d="M113.4227 98.7183
L113.5179 98.6231
" />
<path d="M113.5179 98.6231
L113.7084 98.5279
" />
<path d="M113.7084 98.5279
L114.1846 98.5279
" />
<path d="M114.1846 98.5279
L114.3750 98.6231
" />
<path d="M114.3750 98.6231
L114.4703 98.7183
" />
<path d="M114.4703 98.7183
L114.5655 98.9088
" />
<path d="M114.5655 98.9088
L114.5655 99.3850
" />
<path d="M114.5655 99.3850
L114.4703 99.5755
" />
<path d="M114.4703 99.5755
L114.3750 99.6707
" />
<path d="M114.3750 99.6707
L114.1846 99.7660
" />
<path d="M114.1846 99.7660
L113.7084 99.7660
" />
<path d="M113.7084 99.7660
L113.5179 99.6707
" />
<path d="M113.5179 99.6707
L113.4227 99.5755
" />
<path d="M115.2322 97.7660
L116.5655 97.7660
" />
<path d="M116.5655 97.7660
L115.7084 99.7660
" />
<path d="M117.2322 97.7660
L117.2322 98.1469
" />
<path d="M117.9941 97.7660
L117.9941 98.1469
" />
<path d="M120.9465 100.5279
L120.8512 100.4326
" />
<path d="M120.8512 100.4326
L120.6608 100.1469
" />
<path d="M120.6608 100.1469
L120.5655 99.9564
" />
<path d="M120.5655 99.9564
L120.4703 99.6707
" />
<path d="M120.4703 99.6707
L120.3750 99.1945
" />
<path d="M120.3750 99.1945
L120.3750 98.8136
" />
<path d="M120.3750 98.8136
L120.4703 98.3374
" />
<path d="M120.4703 98.3374
L120.5655 98.0517
" />
<path d="M120.5655 98.0517
L120.6608 97.8612
" />
<path d="M120.6608 97.8612
L120.8512 97.5755
" />
<path d="M120.8512 97.5755
L120.9465 97.4802
" />
<path d="M122.5655 98.4326
L122.5655 99.7660
" />
<path d="M122.0893 97.6707
L121.6131 99.0993
" />
<path d="M121.6131 99.0993
L122.8512 99.0993
" />
<path d="M125.1370 99.7660
L125.1370 97.7660
" />
<path d="M125.9941 99.7660
L125.9941 98.7183
" />
<path d="M125.9941 98.7183
L125.8989 98.5279
" />
<path d="M125.8989 98.5279
L125.7084 98.4326
" />
<path d="M125.7084 98.4326
L125.4227 98.4326
" />
<path d="M125.4227 98.4326
L125.2322 98.5279
" />
<path d="M125.2322 98.5279
L125.1370 98.6231
" />
<path d="M127.2322 99.7660
L127.0417 99.6707
" />
<path d="M127.0417 99.6707
L126.9465 99.5755
" />
<path d="M126.9465 99.5755
L126.8512 99.3850
" />
<path d="M126.8512 99.3850
L126.8512 98.8136
" />
<path d="M126.8512 98.8136
L126.9465 98.6231
" />
<path d="M126.9465 98.6231
L127.0417 98.5279
" />
<path d="M127.0417 98.5279
L127.2322 98.4326
" />
<path d="M127.2322 98.4326
L127.5179 98.4326
" />
<path d="M127.5179 98.4326
L127.7084 98.5279
" />
<path d="M127.7084 98.5279
L127.8036 98.6231
" />
<path d="M127.8036 98.6231
L127.8989 98.8136
" />
<path d="M127.8989 98.8136
L127.8989 99.3850
" />
<path d="M127.8989 99.3850
L127.8036 99.5755
" />
<path d="M127.8036 99.5755
L127.7084 99.6707
" />
<path d="M127.7084 99.6707
L127.5179 99.7660
" />
<path d="M127.5179 99.7660
L127.2322 99.7660
" />
<path d="M129.0417 99.7660
L128.8512 99.6707
" />
<path d="M128.8512 99.6707
L128.7560 99.4802
" />
<path d="M128.7560 99.4802
L128.7560 97.7660
" />
<path d="M130.5655 99.6707
L130.3750 99.7660
" />
<path d="M130.3750 99.7660
L129.9941 99.7660
" />
<path d="M129.9941 99.7660
L129.8036 99.6707
" />
<path d="M129.8036 99.6707
L129.7084 99.4802
" />
<path d="M129.7084 99.4802
L129.7084 98.7183
" />
<path d="M129.7084 98.7183
L129.8036 98.5279
" />
<path d="M129.8036 98.5279
L129.9941 98.4326
" />
<path d="M129.9941 98.4326
L130.3750 98.4326
" />
<path d="M130.3750 98.4326
L130.5655 98.5279
" />
<path d="M130.5655 98.5279
L130.6608 98.7183
" />
<path d="M130.6608 98.7183
L130.6608 98.9088
" />
<path d="M130.6608 98.9088
L129.7084 99.0993
" />
<path d="M131.4227 99.6707
L131.6131 99.7660
" />
<path d="M131.6131 99.7660
L131.9941 99.7660
" />
<path d="M131.9941 99.7660
L132.1846 99.6707
" />
<path d="M132.1846 99.6707
L132.2798 99.4802
" />
<path d="M132.2798 99.4802
L132.2798 99.3850
" />
<path d="M132.2798 99.3850
L132.1846 99.1945
" />
<path d="M132.1846 99.1945
L131.9941 99.0993
" />
<path d="M131.9941 99.0993
L131.7084 99.0993
" />
<path d="M131.7084 99.0993
L131.5179 99.0041
" />
<path d="M131.5179 99.0041
L131.4227 98.8136
" />
<path d="M131.4227 98.8136
L131.4227 98.7183
" />
<path d="M131.4227 98.7183
L131.5179 98.5279
" />
<path d="M131.5179 98.5279
L131.7084 98.4326
" />
<path d="M131.7084 98.4326
L131.9941 98.4326
" />
<path d="M131.9941 98.4326
L132.1846 98.5279
" />
<path d="M132.9465 100.5279
L133.0417 100.4326
" />
<path d="M133.0417 100.4326
L133.2322 100.1469
" />
<path d="M133.2322 100.1469
L133.3274 99.9564
" />
<path d="M133.3274 99.9564
L133.4227 99.6707
" />
<path d="M133.4227 99.6707
L133.5179 99.1945
" />
<path d="M133.5179 99.1945
L133.5179 98.8136
" />
<path d="M133.5179 98.8136
L133.4227 98.3374
" />
<path d="M133.4227 98.3374
L133.3274 98.0517
" />
<path d="M133.3274 98.0517
L133.2322 97.8612
" />
<path d="M133.2322 97.8612
L133.0417 97.5755
" />
<path d="M133.0417 97.5755
L132.9465 97.4802
" />
</g></g>
<g style="fill:#000000; fill-opacity:0.0; 
stroke:#000000; stroke-width:0.1800; stroke-opacity:1; 
stroke-linecap:round; stroke-linejoin:round;">
<circle cx="84.4274" cy="101.4807" r="0.9000" /> 
</g>
<g style="fill:#000000; fill-opacity:0.0; 
stroke:#000000; stroke-width:0.6000; stroke-opacity:1; 
stroke-linecap:round; stroke-linejoin:round;">
</g>
<g style="fill:#000000; fill-opacity:0.0; 
stroke:#000000; stroke-width:0.2000; stroke-opacity:1; 
stroke-linecap:round; stroke-linejoin:round;">
<text x="87.3274" y="102.4807"
textLength="46.7667" font-size="2.6667" lengthAdjust="spacingAndGlyphs"
text-anchor="start" opacity="0">0.600mm / 0.0236" (4 holes)</text>
<g class="stroked-text"><desc>0.600mm / 0.0236" (4 holes)</desc>
<path d="M88.1846 100.4060
L88.3750 100.4060
" />
<path d="M88.3750 100.4060
L88.5655 100.5012
" />
<path d="M88.5655 100.5012
L88.6607 100.5964
" />
<path d="M88.6607 100.5964
L88.7560 100.7869
" />
<path d="M88.7560 100.7869
L88.8512 101.1679
" />
<path d="M88.8512 101.1679
L88.8512 101.6441
" />
<path d="M88.8512 101.6441
L88.7560 102.0250
" />
<path d="M88.7560 102.0250
L88.6607 102.2155
" />
<path d="M88.6607 102.2155
L88.5655 102.3107
" />
<path d="M88.5655 102.3107
L88.3750 102.4060
" />
<path d="M88.3750 102.4060
L88.1846 102.4060
" />
<path d="M88.1846 102.4060
L87.9941 102.3107
" />
<path d="M87.9941 102.3107
L87.8988 102.2155
" />
<path d="M87.8988 102.2155
L87.8036 102.0250
" />
<path d="M87.8036 102.0250
L87.7084 101.6441
" />
<path d="M87.7084 101.6441
L87.7084 101.1679
" />
<path d="M87.7084 101.1679
L87.8036 100.7869
" />
<path d="M87.8036 100.7869
L87.8988 100.5964
" />
<path d="M87.8988 100.5964
L87.9941 100.5012
" />
<path d="M87.9941 100.5012
L88.1846 100.4060
" />
<path d="M89.7084 102.2155
L89.8036 102.3107
" />
<path d="M89.8036 102.3107
L89.7084 102.4060
" />
<path d="M89.7084 102.4060
L89.6131 102.3107
" />
<path d="M89.6131 102.3107
L89.7084 102.2155
" />
<path d="M89.7084 102.2155
L89.7084 102.4060
" />
<path d="M91.5179 100.4060
L91.1369 100.4060
" />
<path d="M91.1369 100.4060
L90.9465 100.5012
" />
<path d="M90.9465 100.5012
L90.8512 100.5964
" />
<path d="M90.8512 100.5964
L90.6607 100.8822
" />
<path d="M90.6607 100.8822
L90.5655 101.2631
" />
<path d="M90.5655 101.2631
L90.5655 102.0250
" />
<path d="M90.5655 102.0250
L90.6607 102.2155
" />
<path d="M90.6607 102.2155
L90.7560 102.3107
" />
<path d="M90.7560 102.3107
L90.9465 102.4060
" />
<path d="M90.9465 102.4060
L91.3274 102.4060
" />
<path d="M91.3274 102.4060
L91.5179 102.3107
" />
<path d="M91.5179 102.3107
L91.6131 102.2155
" />
<path d="M91.6131 102.2155
L91.7084 102.0250
" />
<path d="M91.7084 102.0250
L91.7084 101.5488
" />
<path d="M91.7084 101.5488
L91.6131 101.3583
" />
<path d="M91.6131 101.3583
L91.5179 101.2631
" />
<path d="M91.5179 101.2631
L91.3274 101.1679
" />
<path d="M91.3274 101.1679
L90.9465 101.1679
" />
<path d="M90.9465 101.1679
L90.7560 101.2631
" />
<path d="M90.7560 101.2631
L90.6607 101.3583
" />
<path d="M90.6607 101.3583
L90.5655 101.5488
" />
<path d="M92.9465 100.4060
L93.1369 100.4060
" />
<path d="M93.1369 100.4060
L93.3274 100.5012
" />
<path d="M93.3274 100.5012
L93.4226 100.5964
" />
<path d="M93.4226 100.5964
L93.5179 100.7869
" />
<path d="M93.5179 100.7869
L93.6131 101.1679
" />
<path d="M93.6131 101.1679
L93.6131 101.6441
" />
<path d="M93.6131 101.6441
L93.5179 102.0250
" />
<path d="M93.5179 102.0250
L93.4226 102.2155
" />
<path d="M93.4226 102.2155
L93.3274 102.3107
" />
<path d="M93.3274 102.3107
L93.1369 102.4060
" />
<path d="M93.1369 102.4060
L92.9465 102.4060
" />
<path d="M92.9465 102.4060
L92.7560 102.3107
" />
<path d="M92.7560 102.3107
L92.6607 102.2155
" />
<path d="M92.6607 102.2155
L92.5655 102.0250
" />
<path d="M92.5655 102.0250
L92.4703 101.6441
" />
<path d="M92.4703 101.6441
L92.4703 101.1679
" />
<path d="M92.4703 101.1679
L92.5655 100.7869
" />
<path d="M92.5655 100.7869
L92.6607 100.5964
" />
<path d="M92.6607 100.5964
L92.7560 100.5012
" />
<path d="M92.7560 100.5012
L92.9465 100.4060
" />
<path d="M94.8512 100.4060
L95.0417 100.4060
" />
<path d="M95.0417 100.4060
L95.2322 100.5012
" />
<path d="M95.2322 100.5012
L95.3274 100.5964
" />
<path d="M95.3274 100.5964
L95.4226 100.7869
" />
<path d="M95.4226 100.7869
L95.5179 101.1679
" />
<path d="M95.5179 101.1679
L95.5179 101.6441
" />
<path d="M95.5179 101.6441
L95.4226 102.0250
" />
<path d="M95.4226 102.0250
L95.3274 102.2155
" />
<path d="M95.3274 102.2155
L95.2322 102.3107
" />
<path d="M95.2322 102.3107
L95.0417 102.4060
" />
<path d="M95.0417 102.4060
L94.8512 102.4060
" />
<path d="M94.8512 102.4060
L94.6607 102.3107
" />
<path d="M94.6607 102.3107
L94.5655 102.2155
" />
<path d="M94.5655 102.2155
L94.4703 102.0250
" />
<path d="M94.4703 102.0250
L94.3750 101.6441
" />
<path d="M94.3750 101.6441
L94.3750 101.1679
" />
<path d="M94.3750 101.1679
L94.4703 100.7869
" />
<path d="M94.4703 100.7869
L94.5655 100.5964
" />
<path d="M94.5655 100.5964
L94.6607 100.5012
" />
<path d="M94.6607 100.5012
L94.8512 100.4060
" />
<path d="M96.3750 102.4060
L96.3750 101.0726
" />
<path d="M96.3750 101.2631
L96.4703 101.1679
" />
<path d="M96.4703 101.1679
L96.6607 101.0726
" />
<path d="M96.6607 101.0726
L96.9465 101.0726
" />
<path d="M96.9465 101.0726
L97.1369 101.1679
" />
<path d="M97.1369 101.1679
L97.2322 101.3583
" />
<path d="M97.2322 101.3583
L97.2322 102.4060
" />
<path d="M97.2322 101.3583
L97.3274 101.1679
" />
<path d="M97.3274 101.1679
L97.5179 101.0726
" />
<path d="M97.5179 101.0726
L97.8036 101.0726
" />
<path d="M97.8036 101.0726
L97.9941 101.1679
" />
<path d="M97.9941 101.1679
L98.0893 101.3583
" />
<path d="M98.0893 101.3583
L98.0893 102.4060
" />
<path d="M99.0417 102.4060
L99.0417 101.0726
" />
<path d="M99.0417 101.2631
L99.1369 101.1679
" />
<path d="M99.1369 101.1679
L99.3274 101.0726
" />
<path d="M99.3274 101.0726
L99.6131 101.0726
" />
<path d="M99.6131 101.0726
L99.8036 101.1679
" />
<path d="M99.8036 101.1679
L99.8988 101.3583
" />
<path d="M99.8988 101.3583
L99.8988 102.4060
" />
<path d="M99.8988 101.3583
L99.9941 101.1679
" />
<path d="M99.9941 101.1679
L100.1846 101.0726
" />
<path d="M100.1846 101.0726
L100.4703 101.0726
" />
<path d="M100.4703 101.0726
L100.6607 101.1679
" />
<path d="M100.6607 101.1679
L100.7560 101.3583
" />
<path d="M100.7560 101.3583
L100.7560 102.4060
" />
<path d="M104.6607 100.3107
L102.9465 102.8822
" />
<path d="M107.2322 100.4060
L107.4227 100.4060
" />
<path d="M107.4227 100.4060
L107.6131 100.5012
" />
<path d="M107.6131 100.5012
L107.7084 100.5964
" />
<path d="M107.7084 100.5964
L107.8036 100.7869
" />
<path d="M107.8036 100.7869
L107.8988 101.1679
" />
<path d="M107.8988 101.1679
L107.8988 101.6441
" />
<path d="M107.8988 101.6441
L107.8036 102.0250
" />
<path d="M107.8036 102.0250
L107.7084 102.2155
" />
<path d="M107.7084 102.2155
L107.6131 102.3107
" />
<path d="M107.6131 102.3107
L107.4227 102.4060
" />
<path d="M107.4227 102.4060
L107.2322 102.4060
" />
<path d="M107.2322 102.4060
L107.0417 102.3107
" />
<path d="M107.0417 102.3107
L106.9465 102.2155
" />
<path d="M106.9465 102.2155
L106.8512 102.0250
" />
<path d="M106.8512 102.0250
L106.7560 101.6441
" />
<path d="M106.7560 101.6441
L106.7560 101.1679
" />
<path d="M106.7560 101.1679
L106.8512 100.7869
" />
<path d="M106.8512 100.7869
L106.9465 100.5964
" />
<path d="M106.9465 100.5964
L107.0417 100.5012
" />
<path d="M107.0417 100.5012
L107.2322 100.4060
" />
<path d="M108.7560 102.2155
L108.8512 102.3107
" />
<path d="M108.8512 102.3107
L108.7560 102.4060
" />
<path d="M108.7560 102.4060
L108.6607 102.3107
" />
<path d="M108.6607 102.3107
L108.7560 102.2155
" />
<path d="M108.7560 102.2155
L108.7560 102.4060
" />
<path d="M110.0893 100.4060
L110.2798 100.4060
" />
<path d="M110.2798 100.4060
L110.4703 100.5012
" />
<path d="M110.4703 100.5012
L110.5655 100.5964
" />
<path d="M110.5655 100.5964
L110.6607 100.7869
" />
<path d="M110.6607 100.7869
L110.7560 101.1679
" />
<path d="M110.7560 101.1679
L110.7560 101.6441
" />
<path d="M110.7560 101.6441
L110.6607 102.0250
" />
<path d="M110.6607 102.0250
L110.5655 102.2155
" />
<path d="M110.5655 102.2155
L110.4703 102.3107
" />
<path d="M110.4703 102.3107
L110.2798 102.4060
" />
<path d="M110.2798 102.4060
L110.0893 102.4060
" />
<path d="M110.0893 102.4060
L109.8988 102.3107
" />
<path d="M109.8988 102.3107
L109.8036 102.2155
" />
<path d="M109.8036 102.2155
L109.7084 102.0250
" />
<path d="M109.7084 102.0250
L109.6131 101.6441
" />
<path d="M109.6131 101.6441
L109.6131 101.1679
" />
<path d="M109.6131 101.1679
L109.7084 100.7869
" />
<path d="M109.7084 100.7869
L109.8036 100.5964
" />
<path d="M109.8036 100.5964
L109.8988 100.5012
" />
<path d="M109.8988 100.5012
L110.0893 100.4060
" />
<path d="M111.5179 100.5964
L111.6131 100.5012
" />
<path d="M111.6131 100.5012
L111.8036 100.4060
" />
<path d="M111.8036 100.4060
L112.2798 100.4060
" />
<path d="M112.2798 100.4060
L112.4703 100.5012
" />
<path d="M112.4703 100.5012
L112.5655 100.5964
" />
<path d="M112.5655 100.5964
L112.6607 100.7869
" />
<path d="M112.6607 100.7869
L112.6607 100.9774
" />
<path d="M112.6607 100.9774
L112.5655 101.2631
" />
<path d="M112.5655 101.2631
L111.4227 102.4060
" />
<path d="M111.4227 102.4060
L112.6607 102.4060
" />
<path d="M113.3274 100.4060
L114.5655 100.4060
" />
<path d="M114.5655 100.4060
L113.8988 101.1679
" />
<path d="M113.8988 101.1679
L114.1846 101.1679
" />
<path d="M114.1846 101.1679
L114.3750 101.2631
" />
<path d="M114.3750 101.2631
L114.4703 101.3583
" />
<path d="M114.4703 101.3583
L114.5655 101.5488
" />
<path d="M114.5655 101.5488
L114.5655 102.0250
" />
<path d="M114.5655 102.0250
L114.4703 102.2155
" />
<path d="M114.4703 102.2155
L114.3750 102.3107
" />
<path d="M114.3750 102.3107
L114.1846 102.4060
" />
<path d="M114.1846 102.4060
L113.6131 102.4060
" />
<path d="M113.6131 102.4060
L113.4227 102.3107
" />
<path d="M113.4227 102.3107
L113.3274 102.2155
" />
<path d="M116.2798 100.4060
L115.8988 100.4060
" />
<path d="M115.8988 100.4060
L115.7084 100.5012
" />
<path d="M115.7084 100.5012
L115.6131 100.5964
" />
<path d="M115.6131 100.5964
L115.4227 100.8822
" />
<path d="M115.4227 100.8822
L115.3274 101.2631
" />
<path d="M115.3274 101.2631
L115.3274 102.0250
" />
<path d="M115.3274 102.0250
L115.4227 102.2155
" />
<path d="M115.4227 102.2155
L115.5179 102.3107
" />
<path d="M115.5179 102.3107
L115.7084 102.4060
" />
<path d="M115.7084 102.4060
L116.0893 102.4060
" />
<path d="M116.0893 102.4060
L116.2798 102.3107
" />
<path d="M116.2798 102.3107
L116.3750 102.2155
" />
<path d="M116.3750 102.2155
L116.4703 102.0250
" />
<path d="M116.4703 102.0250
L116.4703 101.5488
" />
<path d="M116.4703 101.5488
L116.3750 101.3583
" />
<path d="M116.3750 101.3583
L116.2798 101.2631
" />
<path d="M116.2798 101.2631
L116.0893 101.1679
" />
<path d="M116.0893 101.1679
L115.7084 101.1679
" />
<path d="M115.7084 101.1679
L115.5179 101.2631
" />
<path d="M115.5179 101.2631
L115.4227 101.3583
" />
<path d="M115.4227 101.3583
L115.3274 101.5488
" />
<path d="M117.2322 100.4060
L117.2322 100.7869
" />
<path d="M117.9941 100.4060
L117.9941 100.7869
" />
<path d="M120.9465 103.1679
L120.8512 103.0726
" />
<path d="M120.8512 103.0726
L120.6608 102.7869
" />
<path d="M120.6608 102.7869
L120.5655 102.5964
" />
<path d="M120.5655 102.5964
L120.4703 102.3107
" />
<path d="M120.4703 102.3107
L120.3750 101.8345
" />
<path d="M120.3750 101.8345
L120.3750 101.4536
" />
<path d="M120.3750 101.4536
L120.4703 100.9774
" />
<path d="M120.4703 100.9774
L120.5655 100.6917
" />
<path d="M120.5655 100.6917
L120.6608 100.5012
" />
<path d="M120.6608 100.5012
L120.8512 100.2155
" />
<path d="M120.8512 100.2155
L120.9465 100.1202
" />
<path d="M122.5655 101.0726
L122.5655 102.4060
" />
<path d="M122.0893 100.3107
L121.6131 101.7393
" />
<path d="M121.6131 101.7393
L122.8512 101.7393
" />
<path d="M125.1370 102.4060
L125.1370 100.4060
" />
<path d="M125.9941 102.4060
L125.9941 101.3583
" />
<path d="M125.9941 101.3583
L125.8989 101.1679
" />
<path d="M125.8989 101.1679
L125.7084 101.0726
" />
<path d="M125.7084 101.0726
L125.4227 101.0726
" />
<path d="M125.4227 101.0726
L125.2322 101.1679
" />
<path d="M125.2322 101.1679
L125.1370 101.2631
" />
<path d="M127.2322 102.4060
L127.0417 102.3107
" />
<path d="M127.0417 102.3107
L126.9465 102.2155
" />
<path d="M126.9465 102.2155
L126.8512 102.0250
" />
<path d="M126.8512 102.0250
L126.8512 101.4536
" />
<path d="M126.8512 101.4536
L126.9465 101.2631
" />
<path d="M126.9465 101.2631
L127.0417 101.1679
" />
<path d="M127.0417 101.1679
L127.2322 101.0726
" />
<path d="M127.2322 101.0726
L127.5179 101.0726
" />
<path d="M127.5179 101.0726
L127.7084 101.1679
" />
<path d="M127.7084 101.1679
L127.8036 101.2631
" />
<path d="M127.8036 101.2631
L127.8989 101.4536
" />
<path d="M127.8989 101.4536
L127.8989 102.0250
" />
<path d="M127.8989 102.0250
L127.8036 102.2155
" />
<path d="M127.8036 102.2155
L127.7084 102.3107
" />
<path d="M127.7084 102.3107
L127.5179 102.4060
" />
<path d="M127.5179 102.4060
L127.2322 102.4060
" />
<path d="M129.0417 102.4060
L128.8512 102.3107
" />
<path d="M128.8512 102.3107
L128.7560 102.1202
" />
<path d="M128.7560 102.1202
L128.7560 100.4060
" />
<path d="M130.5655 102.3107
L130.3750 102.4060
" />
<path d="M130.3750 102.4060
L129.9941 102.4060
" />
<path d="M129.9941 102.4060
L129.8036 102.3107
" />
<path d="M129.8036 102.3107
L129.7084 102.1202
" />
<path d="M129.7084 102.1202
L129.7084 101.3583
" />
<path d="M129.7084 101.3583
L129.8036 101.1679
" />
<path d="M129.8036 101.1679
L129.9941 101.0726
" />
<path d="M129.9941 101.0726
L130.3750 101.0726
" />
<path d="M130.3750 101.0726
L130.5655 101.1679
" />
<path d="M130.5655 101.1679
L130.6608 101.3583
" />
<path d="M130.6608 101.3583
L130.6608 101.5488
" />
<path d="M130.6608 101.5488
L129.7084 101.7393
" />
<path d="M131.4227 102.3107
L131.6131 102.4060
" />
<path d="M131.6131 102.4060
L131.9941 102.4060
" />
<path d="M131.9941 102.4060
L132.1846 102.3107
" />
<path d="M132.1846 102.3107
L132.2798 102.1202
" />
<path d="M132.2798 102.1202
L132.2798 102.0250
" />
<path d="M132.2798 102.0250
L132.1846 101.8345
" />
<path d="M132.1846 101.8345
L131.9941 101.7393
" />
<path d="M131.9941 101.7393
L131.7084 101.7393
" />
<path d="M131.7084 101.7393
L131.5179 101.6441
" />
<path d="M131.5179 101.6441
L131.4227 101.4536
" />
<path d="M131.4227 101.4536
L131.4227 101.3583
" />
<path d="M131.4227 101.3583
L131.5179 101.1679
" />
<path d="M131.5179 101.1679
L131.7084 101.0726
" />
<path d="M131.7084 101.0726
L131.9941 101.0726
" />
<path d="M131.9941 101.0726
L132.1846 101.1679
" />
<path d="M132.9465 103.1679
L133.0417 103.0726
" />
<path d="M133.0417 103.0726
L133.2322 102.7869
" />
<path d="M133.2322 102.7869
L133.3274 102.5964
" />
<path d="M133.3274 102.5964
L133.4227 102.3107
" />
<path d="M133.4227 102.3107
L133.5179 101.8345
" />
<path d="M133.5179 101.8345
L133.5179 101.4536
" />
<path d="M133.5179 101.4536
L133.4227 100.9774
" />
<path d="M133.4227 100.9774
L133.3274 100.6917
" />
<path d="M133.3274 100.6917
L133.2322 100.5012
" />
<path d="M133.2322 100.5012
L133.0417 100.2155
" />
<path d="M133.0417 100.2155
L132.9465 100.1202
" />
</g></g>
<g style="fill:#000000; fill-opacity:0.0; 
stroke:#000000; stroke-width:0.1950; stroke-opacity:1; 
stroke-linecap:round; stroke-linejoin:round;">
<path d="M84.3524 103.5057
L84.3524 105.4557
" />
<path d="M83.3774 104.4807
L85.3274 104.4807
" />
</g>
<g style="fill:#000000; fill-opacity:0.0; 
stroke:#000000; stroke-width:0.6000; stroke-opacity:1; 
stroke-linecap:round; stroke-linejoin:round;">
</g>
<g style="fill:#000000; fill-opacity:0.0; 
stroke:#000000; stroke-width:0.2000; stroke-opacity:1; 
stroke-linecap:round; stroke-linejoin:round;">
<text x="87.3274" y="105.4807"
textLength="46.7667" font-size="2.6667" lengthAdjust="spacingAndGlyphs"
text-anchor="start" opacity="0">0.650mm / 0.0256" (2 holes)</text>
<g class="stroked-text"><desc>0.650mm / 0.0256" (2 holes)</desc>
<path d="M88.1846 103.4060
L88.3750 103.4060
" />
<path d="M88.3750 103.4060
L88.5655 103.5012
" />
<path d="M88.5655 103.5012
L88.6607 103.5964
" />
<path d="M88.6607 103.5964
L88.7560 103.7869
" />
<path d="M88.7560 103.7869
L88.8512 104.1679
" />
<path d="M88.8512 104.1679
L88.8512 104.6441
" />
<path d="M88.8512 104.6441
L88.7560 105.0250
" />
<path d="M88.7560 105.0250
L88.6607 105.2155
" />
<path d="M88.6607 105.2155
L88.5655 105.3107
" />
<path d="M88.5655 105.3107
L88.3750 105.4060
" />
<path d="M88.3750 105.4060
L88.1846 105.4060
" />
<path d="M88.1846 105.4060
L87.9941 105.3107
" />
<path d="M87.9941 105.3107
L87.8988 105.2155
" />
<path d="M87.8988 105.2155
L87.8036 105.0250
" />
<path d="M87.8036 105.0250
L87.7084 104.6441
" />
<path d="M87.7084 104.6441
L87.7084 104.1679
" />
<path d="M87.7084 104.1679
L87.8036 103.7869
" />
<path d="M87.8036 103.7869
L87.8988 103.5964
" />
<path d="M87.8988 103.5964
L87.9941 103.5012
" />
<path d="M87.9941 103.5012
L88.1846 103.4060
" />
<path d="M89.7084 105.2155
L89.8036 105.3107
" />
<path d="M89.8036 105.3107
L89.7084 105.4060
" />
<path d="M89.7084 105.4060
L89.6131 105.3107
" />
<path d="M89.6131 105.3107
L89.7084 105.2155
" />
<path d="M89.7084 105.2155
L89.7084 105.4060
" />
<path d="M91.5179 103.4060
L91.1369 103.4060
" />
<path d="M91.1369 103.4060
L90.9465 103.5012
" />
<path d="M90.9465 103.5012
L90.8512 103.5964
" />
<path d="M90.8512 103.5964
L90.6607 103.8822
" />
<path d="M90.6607 103.8822
L90.5655 104.2631
" />
<path d="M90.5655 104.2631
L90.5655 105.0250
" />
<path d="M90.5655 105.0250
L90.6607 105.2155
" />
<path d="M90.6607 105.2155
L90.7560 105.3107
" />
<path d="M90.7560 105.3107
L90.9465 105.4060
" />
<path d="M90.9465 105.4060
L91.3274 105.4060
" />
<path d="M91.3274 105.4060
L91.5179 105.3107
" />
<path d="M91.5179 105.3107
L91.6131 105.2155
" />
<path d="M91.6131 105.2155
L91.7084 105.0250
" />
<path d="M91.7084 105.0250
L91.7084 104.5488
" />
<path d="M91.7084 104.5488
L91.6131 104.3583
" />
<path d="M91.6131 104.3583
L91.5179 104.2631
" />
<path d="M91.5179 104.2631
L91.3274 104.1679
" />
<path d="M91.3274 104.1679
L90.9465 104.1679
" />
<path d="M90.9465 104.1679
L90.7560 104.2631
" />
<path d="M90.7560 104.2631
L90.6607 104.3583
" />
<path d="M90.6607 104.3583
L90.5655 104.5488
" />
<path d="M93.5179 103.4060
L92.5655 103.4060
" />
<path d="M92.5655 103.4060
L92.4703 104.3583
" />
<path d="M92.4703 104.3583
L92.5655 104.2631
" />
<path d="M92.5655 104.2631
L92.7560 104.1679
" />
<path d="M92.7560 104.1679
L93.2322 104.1679
" />
<path d="M93.2322 104.1679
L93.4226 104.2631
" />
<path d="M93.4226 104.2631
L93.5179 104.3583
" />
<path d="M93.5179 104.3583
L93.6131 104.5488
" />
<path d="M93.6131 104.5488
L93.6131 105.0250
" />
<path d="M93.6131 105.0250
L93.5179 105.2155
" />
<path d="M93.5179 105.2155
L93.4226 105.3107
" />
<path d="M93.4226 105.3107
L93.2322 105.4060
" />
<path d="M93.2322 105.4060
L92.7560 105.4060
" />
<path d="M92.7560 105.4060
L92.5655 105.3107
" />
<path d="M92.5655 105.3107
L92.4703 105.2155
" />
<path d="M94.8512 103.4060
L95.0417 103.4060
" />
<path d="M95.0417 103.4060
L95.2322 103.5012
" />
<path d="M95.2322 103.5012
L95.3274 103.5964
" />
<path d="M95.3274 103.5964
L95.4226 103.7869
" />
<path d="M95.4226 103.7869
L95.5179 104.1679
" />
<path d="M95.5179 104.1679
L95.5179 104.6441
" />
<path d="M95.5179 104.6441
L95.4226 105.0250
" />
<path d="M95.4226 105.0250
L95.3274 105.2155
" />
<path d="M95.3274 105.2155
L95.2322 105.3107
" />
<path d="M95.2322 105.3107
L95.0417 105.4060
" />
<path d="M95.0417 105.4060
L94.8512 105.4060
" />
<path d="M94.8512 105.4060
L94.6607 105.3107
" />
<path d="M94.6607 105.3107
L94.5655 105.2155
" />
<path d="M94.5655 105.2155
L94.4703 105.0250
" />
<path d="M94.4703 105.0250
L94.3750 104.6441
" />
<path d="M94.3750 104.6441
L94.3750 104.1679
" />
<path d="M94.3750 104.1679
L94.4703 103.7869
" />
<path d="M94.4703 103.7869
L94.5655 103.5964
" />
<path d="M94.5655 103.5964
L94.6607 103.5012
" />
<path d="M94.6607 103.5012
L94.8512 103.4060
" />
<path d="M96.3750 105.4060
L96.3750 104.0726
" />
<path d="M96.3750 104.2631
L96.4703 104.1679
" />
<path d="M96.4703 104.1679
L96.6607 104.0726
" />
<path d="M96.6607 104.0726
L96.9465 104.0726
" />
<path d="M96.9465 104.0726
L97.1369 104.1679
" />
<path d="M97.1369 104.1679
L97.2322 104.3583
" />
<path d="M97.2322 104.3583
L97.2322 105.4060
" />
<path d="M97.2322 104.3583
L97.3274 104.1679
" />
<path d="M97.3274 104.1679
L97.5179 104.0726
" />
<path d="M97.5179 104.0726
L97.8036 104.0726
" />
<path d="M97.8036 104.0726
L97.9941 104.1679
" />
<path d="M97.9941 104.1679
L98.0893 104.3583
" />
<path d="M98.0893 104.3583
L98.0893 105.4060
" />
<path d="M99.0417 105.4060
L99.0417 104.0726
" />
<path d="M99.0417 104.2631
L99.1369 104.1679
" />
<path d="M99.1369 104.1679
L99.3274 104.0726
" />
<path d="M99.3274 104.0726
L99.6131 104.0726
" />
<path d="M99.6131 104.0726
L99.8036 104.1679
" />
<path d="M99.8036 104.1679
L99.8988 104.3583
" />
<path d="M99.8988 104.3583
L99.8988 105.4060
" />
<path d="M99.8988 104.3583
L99.9941 104.1679
" />
<path d="M99.9941 104.1679
L100.1846 104.0726
" />
<path d="M100.1846 104.0726
L100.4703 104.0726
" />
<path d="M100.4703 104.0726
L100.6607 104.1679
" />
<path d="M100.6607 104.1679
L100.7560 104.3583
" />
<path d="M100.7560 104.3583
L100.7560 105.4060
" />
<path d="M104.6607 103.3107
L102.9465 105.8822
" />
<path d="M107.2322 103.4060
L107.4227 103.4060
" />
<path d="M107.4227 103.4060
L107.6131 103.5012
" />
<path d="M107.6131 103.5012
L107.7084 103.5964
" />
<path d="M107.7084 103.5964
L107.8036 103.7869
" />
<path d="M107.8036 103.7869
L107.8988 104.1679
" />
<path d="M107.8988 104.1679
L107.8988 104.6441
" />
<path d="M107.8988 104.6441
L107.8036 105.0250
" />
<path d="M107.8036 105.0250
L107.7084 105.2155
" />
<path d="M107.7084 105.2155
L107.6131 105.3107
" />
<path d="M107.6131 105.3107
L107.4227 105.4060
" />
<path d="M107.4227 105.4060
L107.2322 105.4060
" />
<path d="M107.2322 105.4060
L107.0417 105.3107
" />
<path d="M107.0417 105.3107
L106.9465 105.2155
" />
<path d="M106.9465 105.2155
L106.8512 105.0250
" />
<path d="M106.8512 105.0250
L106.7560 104.6441
" />
<path d="M106.7560 104.6441
L106.7560 104.1679
" />
<path d="M106.7560 104.1679
L106.8512 103.7869
" />
<path d="M106.8512 103.7869
L106.9465 103.5964
" />
<path d="M106.9465 103.5964
L107.0417 103.5012
" />
<path d="M107.0417 103.5012
L107.2322 103.4060
" />
<path d="M108.7560 105.2155
L108.8512 105.3107
" />
<path d="M108.8512 105.3107
L108.7560 105.4060
" />
<path d="M108.7560 105.4060
L108.6607 105.3107
" />
<path d="M108.6607 105.3107
L108.7560 105.2155
" />
<path d="M108.7560 105.2155
L108.7560 105.4060
" />
<path d="M110.0893 103.4060
L110.2798 103.4060
" />
<path d="M110.2798 103.4060
L110.4703 103.5012
" />
<path d="M110.4703 103.5012
L110.5655 103.5964
" />
<path d="M110.5655 103.5964
L110.6607 103.7869
" />
<path d="M110.6607 103.7869
L110.7560 104.1679
" />
<path d="M110.7560 104.1679
L110.7560 104.6441
" />
<path d="M110.7560 104.6441
L110.6607 105.0250
" />
<path d="M110.6607 105.0250
L110.5655 105.2155
" />
<path d="M110.5655 105.2155
L110.4703 105.3107
" />
<path d="M110.4703 105.3107
L110.2798 105.4060
" />
<path d="M110.2798 105.4060
L110.0893 105.4060
" />
<path d="M110.0893 105.4060
L109.8988 105.3107
" />
<path d="M109.8988 105.3107
L109.8036 105.2155
" />
<path d="M109.8036 105.2155
L109.7084 105.0250
" />
<path d="M109.7084 105.0250
L109.6131 104.6441
" />
<path d="M109.6131 104.6441
L109.6131 104.1679
" />
<path d="M109.6131 104.1679
L109.7084 103.7869
" />
<path d="M109.7084 103.7869
L109.8036 103.5964
" />
<path d="M109.8036 103.5964
L109.8988 103.5012
" />
<path d="M109.8988 103.5012
L110.0893 103.4060
" />
<path d="M111.5179 103.5964
L111.6131 103.5012
" />
<path d="M111.6131 103.5012
L111.8036 103.4060
" />
<path d="M111.8036 103.4060
L112.2798 103.4060
" />
<path d="M112.2798 103.4060
L112.4703 103.5012
" />
<path d="M112.4703 103.5012
L112.5655 103.5964
" />
<path d="M112.5655 103.5964
L112.6607 103.7869
" />
<path d="M112.6607 103.7869
L112.6607 103.9774
" />
<path d="M112.6607 103.9774
L112.5655 104.2631
" />
<path d="M112.5655 104.2631
L111.4227 105.4060
" />
<path d="M111.4227 105.4060
L112.6607 105.4060
" />
<path d="M114.4703 103.4060
L113.5179 103.4060
" />
<path d="M113.5179 103.4060
L113.4227 104.3583
" />
<path d="M113.4227 104.3583
L113.5179 104.2631
" />
<path d="M113.5179 104.2631
L113.7084 104.1679
" />
<path d="M113.7084 104.1679
L114.1846 104.1679
" />
<path d="M114.1846 104.1679
L114.3750 104.2631
" />
<path d="M114.3750 104.2631
L114.4703 104.3583
" />
<path d="M114.4703 104.3583
L114.5655 104.5488
" />
<path d="M114.5655 104.5488
L114.5655 105.0250
" />
<path d="M114.5655 105.0250
L114.4703 105.2155
" />
<path d="M114.4703 105.2155
L114.3750 105.3107
" />
<path d="M114.3750 105.3107
L114.1846 105.4060
" />
<path d="M114.1846 105.4060
L113.7084 105.4060
" />
<path d="M113.7084 105.4060
L113.5179 105.3107
" />
<path d="M113.5179 105.3107
L113.4227 105.2155
" />
<path d="M116.2798 103.4060
L115.8988 103.4060
" />
<path d="M115.8988 103.4060
L115.7084 103.5012
" />
<path d="M115.7084 103.5012
L115.6131 103.5964
" />
<path d="M115.6131 103.5964
L115.4227 103.8822
" />
<path d="M115.4227 103.8822
L115.3274 104.2631
" />
<path d="M115.3274 104.2631
L115.3274 105.0250
" />
<path d="M115.3274 105.0250
L115.4227 105.2155
" />
<path d="M115.4227 105.2155
L115.5179 105.3107
" />
<path d="M115.5179 105.3107
L115.7084 105.4060
" />
<path d="M115.7084 105.4060
L116.0893 105.4060
" />
<path d="M116.0893 105.4060
L116.2798 105.3107
" />
<path d="M116.2798 105.3107
L116.3750 105.2155
" />
<path d="M116.3750 105.2155
L116.4703 105.0250
" />
<path d="M116.4703 105.0250
L116.4703 104.5488
" />
<path d="M116.4703 104.5488
L116.3750 104.3583
" />
<path d="M116.3750 104.3583
L116.2798 104.2631
" />
<path d="M116.2798 104.2631
L116.0893 104.1679
" />
<path d="M116.0893 104.1679
L115.7084 104.1679
" />
<path d="M115.7084 104.1679
L115.5179 104.2631
" />
<path d="M115.5179 104.2631
L115.4227 104.3583
" />
<path d="M115.4227 104.3583
L115.3274 104.5488
" />
<path d="M117.2322 103.4060
L117.2322 103.7869
" />
<path d="M117.9941 103.4060
L117.9941 103.7869
" />
<path d="M120.9465 106.1679
L120.8512 106.0726
" />
<path d="M120.8512 106.0726
L120.6608 105.7869
" />
<path d="M120.6608 105.7869
L120.5655 105.5964
" />
<path d="M120.5655 105.5964
L120.4703 105.3107
" />
<path d="M120.4703 105.3107
L120.3750 104.8345
" />
<path d="M120.3750 104.8345
L120.3750 104.4536
" />
<path d="M120.3750 104.4536
L120.4703 103.9774
" />
<path d="M120.4703 103.9774
L120.5655 103.6917
" />
<path d="M120.5655 103.6917
L120.6608 103.5012
" />
<path d="M120.6608 103.5012
L120.8512 103.2155
" />
<path d="M120.8512 103.2155
L120.9465 103.1202
" />
<path d="M121.6131 103.5964
L121.7084 103.5012
" />
<path d="M121.7084 103.5012
L121.8989 103.4060
" />
<path d="M121.8989 103.4060
L122.3750 103.4060
" />
<path d="M122.3750 103.4060
L122.5655 103.5012
" />
<path d="M122.5655 103.5012
L122.6608 103.5964
" />
<path d="M122.6608 103.5964
L122.7560 103.7869
" />
<path d="M122.7560 103.7869
L122.7560 103.9774
" />
<path d="M122.7560 103.9774
L122.6608 104.2631
" />
<path d="M122.6608 104.2631
L121.5179 105.4060
" />
<path d="M121.5179 105.4060
L122.7560 105.4060
" />
<path d="M125.1370 105.4060
L125.1370 103.4060
" />
<path d="M125.9941 105.4060
L125.9941 104.3583
" />
<path d="M125.9941 104.3583
L125.8989 104.1679
" />
<path d="M125.8989 104.1679
L125.7084 104.0726
" />
<path d="M125.7084 104.0726
L125.4227 104.0726
" />
<path d="M125.4227 104.0726
L125.2322 104.1679
" />
<path d="M125.2322 104.1679
L125.1370 104.2631
" />
<path d="M127.2322 105.4060
L127.0417 105.3107
" />
<path d="M127.0417 105.3107
L126.9465 105.2155
" />
<path d="M126.9465 105.2155
L126.8512 105.0250
" />
<path d="M126.8512 105.0250
L126.8512 104.4536
" />
<path d="M126.8512 104.4536
L126.9465 104.2631
" />
<path d="M126.9465 104.2631
L127.0417 104.1679
" />
<path d="M127.0417 104.1679
L127.2322 104.0726
" />
<path d="M127.2322 104.0726
L127.5179 104.0726
" />
<path d="M127.5179 104.0726
L127.7084 104.1679
" />
<path d="M127.7084 104.1679
L127.8036 104.2631
" />
<path d="M127.8036 104.2631
L127.8989 104.4536
" />
<path d="M127.8989 104.4536
L127.8989 105.0250
" />
<path d="M127.8989 105.0250
L127.8036 105.2155
" />
<path d="M127.8036 105.2155
L127.7084 105.3107
" />
<path d="M127.7084 105.3107
L127.5179 105.4060
" />
<path d="M127.5179 105.4060
L127.2322 105.4060
" />
<path d="M129.0417 105.4060
L128.8512 105.3107
" />
<path d="M128.8512 105.3107
L128.7560 105.1202
" />
<path d="M128.7560 105.1202
L128.7560 103.4060
" />
<path d="M130.5655 105.3107
L130.3750 105.4060
" />
<path d="M130.3750 105.4060
L129.9941 105.4060
" />
<path d="M129.9941 105.4060
L129.8036 105.3107
" />
<path d="M129.8036 105.3107
L129.7084 105.1202
" />
<path d="M129.7084 105.1202
L129.7084 104.3583
" />
<path d="M129.7084 104.3583
L129.8036 104.1679
" />
<path d="M129.8036 104.1679
L129.9941 104.0726
" />
<path d="M129.9941 104.0726
L130.3750 104.0726
" />
<path d="M130.3750 104.0726
L130.5655 104.1679
" />
<path d="M130.5655 104.1679
L130.6608 104.3583
" />
<path d="M130.6608 104.3583
L130.6608 104.5488
" />
<path d="M130.6608 104.5488
L129.7084 104.7393
" />
<path d="M131.4227 105.3107
L131.6131 105.4060
" />
<path d="M131.6131 105.4060
L131.9941 105.4060
" />
<path d="M131.9941 105.4060
L132.1846 105.3107
" />
<path d="M132.1846 105.3107
L132.2798 105.1202
" />
<path d="M132.2798 105.1202
L132.2798 105.0250
" />
<path d="M132.2798 105.0250
L132.1846 104.8345
" />
<path d="M132.1846 104.8345
L131.9941 104.7393
" />
<path d="M131.9941 104.7393
L131.7084 104.7393
" />
<path d="M131.7084 104.7393
L131.5179 104.6441
" />
<path d="M131.5179 104.6441
L131.4227 104.4536
" />
<path d="M131.4227 104.4536
L131.4227 104.3583
" />
<path d="M131.4227 104.3583
L131.5179 104.1679
" />
<path d="M131.5179 104.1679
L131.7084 104.0726
" />
<path d="M131.7084 104.0726
L131.9941 104.0726
" />
<path d="M131.9941 104.0726
L132.1846 104.1679
" />
<path d="M132.9465 106.1679
L133.0417 106.0726
" />
<path d="M133.0417 106.0726
L133.2322 105.7869
" />
<path d="M133.2322 105.7869
L133.3274 105.5964
" />
<path d="M133.3274 105.5964
L133.4227 105.3107
" />
<path d="M133.4227 105.3107
L133.5179 104.8345
" />
<path d="M133.5179 104.8345
L133.5179 104.4536
" />
<path d="M133.5179 104.4536
L133.4227 103.9774
" />
<path d="M133.4227 103.9774
L133.3274 103.6917
" />
<path d="M133.3274 103.6917
L133.2322 103.5012
" />
<path d="M133.2322 103.5012
L133.0417 103.2155
" />
<path d="M133.0417 103.2155
L132.9465 103.1202
" />
</g></g>
<g style="fill:#000000; fill-opacity:0.0; 
stroke:#000000; stroke-width:0.2000; stroke-opacity:1; 
stroke-linecap:round; stroke-linejoin:round;">
<path style="fill:#000000; fill-opacity:0.0; 
stroke:#000000; stroke-width:0.2000; stroke-opacity:1; 
stroke-linecap:round; stroke-linejoin:round;fill:none"
d="M 85.0345,108.3378
85.0345,106.9236
83.6203,106.9236
83.6203,108.3378
Z" /> 
</g>
<g style="fill:#000000; fill-opacity:0.0; 
stroke:#000000; stroke-width:0.6000; stroke-opacity:1; 
stroke-linecap:round; stroke-linejoin:round;">
</g>
<g style="fill:#000000; fill-opacity:0.0; 
stroke:#000000; stroke-width:0.2000; stroke-opacity:1; 
stroke-linecap:round; stroke-linejoin:round;">
<text x="87.3274" y="108.6307"
textLength="46.7667" font-size="2.6667" lengthAdjust="spacingAndGlyphs"
text-anchor="start" opacity="0">0.700mm / 0.0276" (3 holes)</text>
<g class="stroked-text"><desc>0.700mm / 0.0276" (3 holes)</desc>
<path d="M88.1846 106.5560
L88.3750 106.5560
" />
<path d="M88.3750 106.5560
L88.5655 106.6512
" />
<path d="M88.5655 106.6512
L88.6607 106.7464
" />
<path d="M88.6607 106.7464
L88.7560 106.9369
" />
<path d="M88.7560 106.9369
L88.8512 107.3179
" />
<path d="M88.8512 107.3179
L88.8512 107.7941
" />
<path d="M88.8512 107.7941
L88.7560 108.1750
" />
<path d="M88.7560 108.1750
L88.6607 108.3655
" />
<path d="M88.6607 108.3655
L88.5655 108.4607
" />
<path d="M88.5655 108.4607
L88.3750 108.5560
" />
<path d="M88.3750 108.5560
L88.1846 108.5560
" />
<path d="M88.1846 108.5560
L87.9941 108.4607
" />
<path d="M87.9941 108.4607
L87.8988 108.3655
" />
<path d="M87.8988 108.3655
L87.8036 108.1750
" />
<path d="M87.8036 108.1750
L87.7084 107.7941
" />
<path d="M87.7084 107.7941
L87.7084 107.3179
" />
<path d="M87.7084 107.3179
L87.8036 106.9369
" />
<path d="M87.8036 106.9369
L87.8988 106.7464
" />
<path d="M87.8988 106.7464
L87.9941 106.6512
" />
<path d="M87.9941 106.6512
L88.1846 106.5560
" />
<path d="M89.7084 108.3655
L89.8036 108.4607
" />
<path d="M89.8036 108.4607
L89.7084 108.5560
" />
<path d="M89.7084 108.5560
L89.6131 108.4607
" />
<path d="M89.6131 108.4607
L89.7084 108.3655
" />
<path d="M89.7084 108.3655
L89.7084 108.5560
" />
<path d="M90.4703 106.5560
L91.8036 106.5560
" />
<path d="M91.8036 106.5560
L90.9465 108.5560
" />
<path d="M92.9465 106.5560
L93.1369 106.5560
" />
<path d="M93.1369 106.5560
L93.3274 106.6512
" />
<path d="M93.3274 106.6512
L93.4226 106.7464
" />
<path d="M93.4226 106.7464
L93.5179 106.9369
" />
<path d="M93.5179 106.9369
L93.6131 107.3179
" />
<path d="M93.6131 107.3179
L93.6131 107.7941
" />
<path d="M93.6131 107.7941
L93.5179 108.1750
" />
<path d="M93.5179 108.1750
L93.4226 108.3655
" />
<path d="M93.4226 108.3655
L93.3274 108.4607
" />
<path d="M93.3274 108.4607
L93.1369 108.5560
" />
<path d="M93.1369 108.5560
L92.9465 108.5560
" />
<path d="M92.9465 108.5560
L92.7560 108.4607
" />
<path d="M92.7560 108.4607
L92.6607 108.3655
" />
<path d="M92.6607 108.3655
L92.5655 108.1750
" />
<path d="M92.5655 108.1750
L92.4703 107.7941
" />
<path d="M92.4703 107.7941
L92.4703 107.3179
" />
<path d="M92.4703 107.3179
L92.5655 106.9369
" />
<path d="M92.5655 106.9369
L92.6607 106.7464
" />
<path d="M92.6607 106.7464
L92.7560 106.6512
" />
<path d="M92.7560 106.6512
L92.9465 106.5560
" />
<path d="M94.8512 106.5560
L95.0417 106.5560
" />
<path d="M95.0417 106.5560
L95.2322 106.6512
" />
<path d="M95.2322 106.6512
L95.3274 106.7464
" />
<path d="M95.3274 106.7464
L95.4226 106.9369
" />
<path d="M95.4226 106.9369
L95.5179 107.3179
" />
<path d="M95.5179 107.3179
L95.5179 107.7941
" />
<path d="M95.5179 107.7941
L95.4226 108.1750
" />
<path d="M95.4226 108.1750
L95.3274 108.3655
" />
<path d="M95.3274 108.3655
L95.2322 108.4607
" />
<path d="M95.2322 108.4607
L95.0417 108.5560
" />
<path d="M95.0417 108.5560
L94.8512 108.5560
" />
<path d="M94.8512 108.5560
L94.6607 108.4607
" />
<path d="M94.6607 108.4607
L94.5655 108.3655
" />
<path d="M94.5655 108.3655
L94.4703 108.1750
" />
<path d="M94.4703 108.1750
L94.3750 107.7941
" />
<path d="M94.3750 107.7941
L94.3750 107.3179
" />
<path d="M94.3750 107.3179
L94.4703 106.9369
" />
<path d="M94.4703 106.9369
L94.5655 106.7464
" />
<path d="M94.5655 106.7464
L94.6607 106.6512
" />
<path d="M94.6607 106.6512
L94.8512 106.5560
" />
<path d="M96.3750 108.5560
L96.3750 107.2226
" />
<path d="M96.3750 107.4131
L96.4703 107.3179
" />
<path d="M96.4703 107.3179
L96.6607 107.2226
" />
<path d="M96.6607 107.2226
L96.9465 107.2226
" />
<path d="M96.9465 107.2226
L97.1369 107.3179
" />
<path d="M97.1369 107.3179
L97.2322 107.5083
" />
<path d="M97.2322 107.5083
L97.2322 108.5560
" />
<path d="M97.2322 107.5083
L97.3274 107.3179
" />
<path d="M97.3274 107.3179
L97.5179 107.2226
" />
<path d="M97.5179 107.2226
L97.8036 107.2226
" />
<path d="M97.8036 107.2226
L97.9941 107.3179
" />
<path d="M97.9941 107.3179
L98.0893 107.5083
" />
<path d="M98.0893 107.5083
L98.0893 108.5560
" />
<path d="M99.0417 108.5560
L99.0417 107.2226
" />
<path d="M99.0417 107.4131
L99.1369 107.3179
" />
<path d="M99.1369 107.3179
L99.3274 107.2226
" />
<path d="M99.3274 107.2226
L99.6131 107.2226
" />
<path d="M99.6131 107.2226
L99.8036 107.3179
" />
<path d="M99.8036 107.3179
L99.8988 107.5083
" />
<path d="M99.8988 107.5083
L99.8988 108.5560
" />
<path d="M99.8988 107.5083
L99.9941 107.3179
" />
<path d="M99.9941 107.3179
L100.1846 107.2226
" />
<path d="M100.1846 107.2226
L100.4703 107.2226
" />
<path d="M100.4703 107.2226
L100.6607 107.3179
" />
<path d="M100.6607 107.3179
L100.7560 107.5083
" />
<path d="M100.7560 107.5083
L100.7560 108.5560
" />
<path d="M104.6607 106.4607
L102.9465 109.0322
" />
<path d="M107.2322 106.5560
L107.4227 106.5560
" />
<path d="M107.4227 106.5560
L107.6131 106.6512
" />
<path d="M107.6131 106.6512
L107.7084 106.7464
" />
<path d="M107.7084 106.7464
L107.8036 106.9369
" />
<path d="M107.8036 106.9369
L107.8988 107.3179
" />
<path d="M107.8988 107.3179
L107.8988 107.7941
" />
<path d="M107.8988 107.7941
L107.8036 108.1750
" />
<path d="M107.8036 108.1750
L107.7084 108.3655
" />
<path d="M107.7084 108.3655
L107.6131 108.4607
" />
<path d="M107.6131 108.4607
L107.4227 108.5560
" />
<path d="M107.4227 108.5560
L107.2322 108.5560
" />
<path d="M107.2322 108.5560
L107.0417 108.4607
" />
<path d="M107.0417 108.4607
L106.9465 108.3655
" />
<path d="M106.9465 108.3655
L106.8512 108.1750
" />
<path d="M106.8512 108.1750
L106.7560 107.7941
" />
<path d="M106.7560 107.7941
L106.7560 107.3179
" />
<path d="M106.7560 107.3179
L106.8512 106.9369
" />
<path d="M106.8512 106.9369
L106.9465 106.7464
" />
<path d="M106.9465 106.7464
L107.0417 106.6512
" />
<path d="M107.0417 106.6512
L107.2322 106.5560
" />
<path d="M108.7560 108.3655
L108.8512 108.4607
" />
<path d="M108.8512 108.4607
L108.7560 108.5560
" />
<path d="M108.7560 108.5560
L108.6607 108.4607
" />
<path d="M108.6607 108.4607
L108.7560 108.3655
" />
<path d="M108.7560 108.3655
L108.7560 108.5560
" />
<path d="M110.0893 106.5560
L110.2798 106.5560
" />
<path d="M110.2798 106.5560
L110.4703 106.6512
" />
<path d="M110.4703 106.6512
L110.5655 106.7464
" />
<path d="M110.5655 106.7464
L110.6607 106.9369
" />
<path d="M110.6607 106.9369
L110.7560 107.3179
" />
<path d="M110.7560 107.3179
L110.7560 107.7941
" />
<path d="M110.7560 107.7941
L110.6607 108.1750
" />
<path d="M110.6607 108.1750
L110.5655 108.3655
" />
<path d="M110.5655 108.3655
L110.4703 108.4607
" />
<path d="M110.4703 108.4607
L110.2798 108.5560
" />
<path d="M110.2798 108.5560
L110.0893 108.5560
" />
<path d="M110.0893 108.5560
L109.8988 108.4607
" />
<path d="M109.8988 108.4607
L109.8036 108.3655
" />
<path d="M109.8036 108.3655
L109.7084 108.1750
" />
<path d="M109.7084 108.1750
L109.6131 107.7941
" />
<path d="M109.6131 107.7941
L109.6131 107.3179
" />
<path d="M109.6131 107.3179
L109.7084 106.9369
" />
<path d="M109.7084 106.9369
L109.8036 106.7464
" />
<path d="M109.8036 106.7464
L109.8988 106.6512
" />
<path d="M109.8988 106.6512
L110.0893 106.5560
" />
<path d="M111.5179 106.7464
L111.6131 106.6512
" />
<path d="M111.6131 106.6512
L111.8036 106.5560
" />
<path d="M111.8036 106.5560
L112.2798 106.5560
" />
<path d="M112.2798 106.5560
L112.4703 106.6512
" />
<path d="M112.4703 106.6512
L112.5655 106.7464
" />
<path d="M112.5655 106.7464
L112.6607 106.9369
" />
<path d="M112.6607 106.9369
L112.6607 107.1274
" />
<path d="M112.6607 107.1274
L112.5655 107.4131
" />
<path d="M112.5655 107.4131
L111.4227 108.5560
" />
<path d="M111.4227 108.5560
L112.6607 108.5560
" />
<path d="M113.3274 106.5560
L114.6607 106.5560
" />
<path d="M114.6607 106.5560
L113.8036 108.5560
" />
<path d="M116.2798 106.5560
L115.8988 106.5560
" />
<path d="M115.8988 106.5560
L115.7084 106.6512
" />
<path d="M115.7084 106.6512
L115.6131 106.7464
" />
<path d="M115.6131 106.7464
L115.4227 107.0322
" />
<path d="M115.4227 107.0322
L115.3274 107.4131
" />
<path d="M115.3274 107.4131
L115.3274 108.1750
" />
<path d="M115.3274 108.1750
L115.4227 108.3655
" />
<path d="M115.4227 108.3655
L115.5179 108.4607
" />
<path d="M115.5179 108.4607
L115.7084 108.5560
" />
<path d="M115.7084 108.5560
L116.0893 108.5560
" />
<path d="M116.0893 108.5560
L116.2798 108.4607
" />
<path d="M116.2798 108.4607
L116.3750 108.3655
" />
<path d="M116.3750 108.3655
L116.4703 108.1750
" />
<path d="M116.4703 108.1750
L116.4703 107.6988
" />
<path d="M116.4703 107.6988
L116.3750 107.5083
" />
<path d="M116.3750 107.5083
L116.2798 107.4131
" />
<path d="M116.2798 107.4131
L116.0893 107.3179
" />
<path d="M116.0893 107.3179
L115.7084 107.3179
" />
<path d="M115.7084 107.3179
L115.5179 107.4131
" />
<path d="M115.5179 107.4131
L115.4227 107.5083
" />
<path d="M115.4227 107.5083
L115.3274 107.6988
" />
<path d="M117.2322 106.5560
L117.2322 106.9369
" />
<path d="M117.9941 106.5560
L117.9941 106.9369
" />
<path d="M120.9465 109.3179
L120.8512 109.2226
" />
<path d="M120.8512 109.2226
L120.6608 108.9369
" />
<path d="M120.6608 108.9369
L120.5655 108.7464
" />
<path d="M120.5655 108.7464
L120.4703 108.4607
" />
<path d="M120.4703 108.4607
L120.3750 107.9845
" />
<path d="M120.3750 107.9845
L120.3750 107.6036
" />
<path d="M120.3750 107.6036
L120.4703 107.1274
" />
<path d="M120.4703 107.1274
L120.5655 106.8417
" />
<path d="M120.5655 106.8417
L120.6608 106.6512
" />
<path d="M120.6608 106.6512
L120.8512 106.3655
" />
<path d="M120.8512 106.3655
L120.9465 106.2702
" />
<path d="M121.5179 106.5560
L122.7560 106.5560
" />
<path d="M122.7560 106.5560
L122.0893 107.3179
" />
<path d="M122.0893 107.3179
L122.3750 107.3179
" />
<path d="M122.3750 107.3179
L122.5655 107.4131
" />
<path d="M122.5655 107.4131
L122.6608 107.5083
" />
<path d="M122.6608 107.5083
L122.7560 107.6988
" />
<path d="M122.7560 107.6988
L122.7560 108.1750
" />
<path d="M122.7560 108.1750
L122.6608 108.3655
" />
<path d="M122.6608 108.3655
L122.5655 108.4607
" />
<path d="M122.5655 108.4607
L122.3750 108.5560
" />
<path d="M122.3750 108.5560
L121.8036 108.5560
" />
<path d="M121.8036 108.5560
L121.6131 108.4607
" />
<path d="M121.6131 108.4607
L121.5179 108.3655
" />
<path d="M125.1370 108.5560
L125.1370 106.5560
" />
<path d="M125.9941 108.5560
L125.9941 107.5083
" />
<path d="M125.9941 107.5083
L125.8989 107.3179
" />
<path d="M125.8989 107.3179
L125.7084 107.2226
" />
<path d="M125.7084 107.2226
L125.4227 107.2226
" />
<path d="M125.4227 107.2226
L125.2322 107.3179
" />
<path d="M125.2322 107.3179
L125.1370 107.4131
" />
<path d="M127.2322 108.5560
L127.0417 108.4607
" />
<path d="M127.0417 108.4607
L126.9465 108.3655
" />
<path d="M126.9465 108.3655
L126.8512 108.1750
" />
<path d="M126.8512 108.1750
L126.8512 107.6036
" />
<path d="M126.8512 107.6036
L126.9465 107.4131
" />
<path d="M126.9465 107.4131
L127.0417 107.3179
" />
<path d="M127.0417 107.3179
L127.2322 107.2226
" />
<path d="M127.2322 107.2226
L127.5179 107.2226
" />
<path d="M127.5179 107.2226
L127.7084 107.3179
" />
<path d="M127.7084 107.3179
L127.8036 107.4131
" />
<path d="M127.8036 107.4131
L127.8989 107.6036
" />
<path d="M127.8989 107.6036
L127.8989 108.1750
" />
<path d="M127.8989 108.1750
L127.8036 108.3655
" />
<path d="M127.8036 108.3655
L127.7084 108.4607
" />
<path d="M127.7084 108.4607
L127.5179 108.5560
" />
<path d="M127.5179 108.5560
L127.2322 108.5560
" />
<path d="M129.0417 108.5560
L128.8512 108.4607
" />
<path d="M128.8512 108.4607
L128.7560 108.2702
" />
<path d="M128.7560 108.2702
L128.7560 106.5560
" />
<path d="M130.5655 108.4607
L130.3750 108.5560
" />
<path d="M130.3750 108.5560
L129.9941 108.5560
" />
<path d="M129.9941 108.5560
L129.8036 108.4607
" />
<path d="M129.8036 108.4607
L129.7084 108.2702
" />
<path d="M129.7084 108.2702
L129.7084 107.5083
" />
<path d="M129.7084 107.5083
L129.8036 107.3179
" />
<path d="M129.8036 107.3179
L129.9941 107.2226
" />
<path d="M129.9941 107.2226
L130.3750 107.2226
" />
<path d="M130.3750 107.2226
L130.5655 107.3179
" />
<path d="M130.5655 107.3179
L130.6608 107.5083
" />
<path d="M130.6608 107.5083
L130.6608 107.6988
" />
<path d="M130.6608 107.6988
L129.7084 107.8893
" />
<path d="M131.4227 108.4607
L131.6131 108.5560
" />
<path d="M131.6131 108.5560
L131.9941 108.5560
" />
<path d="M131.9941 108.5560
L132.1846 108.4607
" />
<path d="M132.1846 108.4607
L132.2798 108.2702
" />
<path d="M132.2798 108.2702
L132.2798 108.1750
" />
<path d="M132.2798 108.1750
L132.1846 107.9845
" />
<path d="M132.1846 107.9845
L131.9941 107.8893
" />
<path d="M131.9941 107.8893
L131.7084 107.8893
" />
<path d="M131.7084 107.8893
L131.5179 107.7941
" />
<path d="M131.5179 107.7941
L131.4227 107.6036
" />
<path d="M131.4227 107.6036
L131.4227 107.5083
" />
<path d="M131.4227 107.5083
L131.5179 107.3179
" />
<path d="M131.5179 107.3179
L131.7084 107.2226
" />
<path d="M131.7084 107.2226
L131.9941 107.2226
" />
<path d="M131.9941 107.2226
L132.1846 107.3179
" />
<path d="M132.9465 109.3179
L133.0417 109.2226
" />
<path d="M133.0417 109.2226
L133.2322 108.9369
" />
<path d="M133.2322 108.9369
L133.3274 108.7464
" />
<path d="M133.3274 108.7464
L133.4227 108.4607
" />
<path d="M133.4227 108.4607
L133.5179 107.9845
" />
<path d="M133.5179 107.9845
L133.5179 107.6036
" />
<path d="M133.5179 107.6036
L133.4227 107.1274
" />
<path d="M133.4227 107.1274
L133.3274 106.8417
" />
<path d="M133.3274 106.8417
L133.2322 106.6512
" />
<path d="M133.2322 106.6512
L133.0417 106.3655
" />
<path d="M133.0417 106.3655
L132.9465 106.2702
" />
</g></g>
<g style="fill:#000000; fill-opacity:0.0; 
stroke:#000000; stroke-width:0.2000; stroke-opacity:1; 
stroke-linecap:round; stroke-linejoin:round;">
<path style="fill:#000000; fill-opacity:0.0; 
stroke:#000000; stroke-width:0.2000; stroke-opacity:1; 
stroke-linecap:round; stroke-linejoin:round;fill:none"
d="M 84.3274,111.8307
85.3274,110.8307
84.3274,109.8307
83.3274,110.8307
Z" /> 
</g>
<g style="fill:#000000; fill-opacity:0.0; 
stroke:#000000; stroke-width:0.6000; stroke-opacity:1; 
stroke-linecap:round; stroke-linejoin:round;">
</g>
<g style="fill:#000000; fill-opacity:0.0; 
stroke:#000000; stroke-width:0.2000; stroke-opacity:1; 
stroke-linecap:round; stroke-linejoin:round;">
<text x="87.3274" y="111.8307"
textLength="46.7667" font-size="2.6667" lengthAdjust="spacingAndGlyphs"
text-anchor="start" opacity="0">1.100mm / 0.0433" (4 holes)</text>
<g class="stroked-text"><desc>1.100mm / 0.0433" (4 holes)</desc>
<path d="M88.8512 111.7560
L87.7084 111.7560
" />
<path d="M88.2798 111.7560
L88.2798 109.7560
" />
<path d="M88.2798 109.7560
L88.0893 110.0417
" />
<path d="M88.0893 110.0417
L87.8988 110.2322
" />
<path d="M87.8988 110.2322
L87.7084 110.3274
" />
<path d="M89.7084 111.5655
L89.8036 111.6607
" />
<path d="M89.8036 111.6607
L89.7084 111.7560
" />
<path d="M89.7084 111.7560
L89.6131 111.6607
" />
<path d="M89.6131 111.6607
L89.7084 111.5655
" />
<path d="M89.7084 111.5655
L89.7084 111.7560
" />
<path d="M91.7084 111.7560
L90.5655 111.7560
" />
<path d="M91.1369 111.7560
L91.1369 109.7560
" />
<path d="M91.1369 109.7560
L90.9465 110.0417
" />
<path d="M90.9465 110.0417
L90.7560 110.2322
" />
<path d="M90.7560 110.2322
L90.5655 110.3274
" />
<path d="M92.9465 109.7560
L93.1369 109.7560
" />
<path d="M93.1369 109.7560
L93.3274 109.8512
" />
<path d="M93.3274 109.8512
L93.4226 109.9464
" />
<path d="M93.4226 109.9464
L93.5179 110.1369
" />
<path d="M93.5179 110.1369
L93.6131 110.5179
" />
<path d="M93.6131 110.5179
L93.6131 110.9941
" />
<path d="M93.6131 110.9941
L93.5179 111.3750
" />
<path d="M93.5179 111.3750
L93.4226 111.5655
" />
<path d="M93.4226 111.5655
L93.3274 111.6607
" />
<path d="M93.3274 111.6607
L93.1369 111.7560
" />
<path d="M93.1369 111.7560
L92.9465 111.7560
" />
<path d="M92.9465 111.7560
L92.7560 111.6607
" />
<path d="M92.7560 111.6607
L92.6607 111.5655
" />
<path d="M92.6607 111.5655
L92.5655 111.3750
" />
<path d="M92.5655 111.3750
L92.4703 110.9941
" />
<path d="M92.4703 110.9941
L92.4703 110.5179
" />
<path d="M92.4703 110.5179
L92.5655 110.1369
" />
<path d="M92.5655 110.1369
L92.6607 109.9464
" />
<path d="M92.6607 109.9464
L92.7560 109.8512
" />
<path d="M92.7560 109.8512
L92.9465 109.7560
" />
<path d="M94.8512 109.7560
L95.0417 109.7560
" />
<path d="M95.0417 109.7560
L95.2322 109.8512
" />
<path d="M95.2322 109.8512
L95.3274 109.9464
" />
<path d="M95.3274 109.9464
L95.4226 110.1369
" />
<path d="M95.4226 110.1369
L95.5179 110.5179
" />
<path d="M95.5179 110.5179
L95.5179 110.9941
" />
<path d="M95.5179 110.9941
L95.4226 111.3750
" />
<path d="M95.4226 111.3750
L95.3274 111.5655
" />
<path d="M95.3274 111.5655
L95.2322 111.6607
" />
<path d="M95.2322 111.6607
L95.0417 111.7560
" />
<path d="M95.0417 111.7560
L94.8512 111.7560
" />
<path d="M94.8512 111.7560
L94.6607 111.6607
" />
<path d="M94.6607 111.6607
L94.5655 111.5655
" />
<path d="M94.5655 111.5655
L94.4703 111.3750
" />
<path d="M94.4703 111.3750
L94.3750 110.9941
" />
<path d="M94.3750 110.9941
L94.3750 110.5179
" />
<path d="M94.3750 110.5179
L94.4703 110.1369
" />
<path d="M94.4703 110.1369
L94.5655 109.9464
" />
<path d="M94.5655 109.9464
L94.6607 109.8512
" />
<path d="M94.6607 109.8512
L94.8512 109.7560
" />
<path d="M96.3750 111.7560
L96.3750 110.4226
" />
<path d="M96.3750 110.6131
L96.4703 110.5179
" />
<path d="M96.4703 110.5179
L96.6607 110.4226
" />
<path d="M96.6607 110.4226
L96.9465 110.4226
" />
<path d="M96.9465 110.4226
L97.1369 110.5179
" />
<path d="M97.1369 110.5179
L97.2322 110.7083
" />
<path d="M97.2322 110.7083
L97.2322 111.7560
" />
<path d="M97.2322 110.7083
L97.3274 110.5179
" />
<path d="M97.3274 110.5179
L97.5179 110.4226
" />
<path d="M97.5179 110.4226
L97.8036 110.4226
" />
<path d="M97.8036 110.4226
L97.9941 110.5179
" />
<path d="M97.9941 110.5179
L98.0893 110.7083
" />
<path d="M98.0893 110.7083
L98.0893 111.7560
" />
<path d="M99.0417 111.7560
L99.0417 110.4226
" />
<path d="M99.0417 110.6131
L99.1369 110.5179
" />
<path d="M99.1369 110.5179
L99.3274 110.4226
" />
<path d="M99.3274 110.4226
L99.6131 110.4226
" />
<path d="M99.6131 110.4226
L99.8036 110.5179
" />
<path d="M99.8036 110.5179
L99.8988 110.7083
" />
<path d="M99.8988 110.7083
L99.8988 111.7560
" />
<path d="M99.8988 110.7083
L99.9941 110.5179
" />
<path d="M99.9941 110.5179
L100.1846 110.4226
" />
<path d="M100.1846 110.4226
L100.4703 110.4226
" />
<path d="M100.4703 110.4226
L100.6607 110.5179
" />
<path d="M100.6607 110.5179
L100.7560 110.7083
" />
<path d="M100.7560 110.7083
L100.7560 111.7560
" />
<path d="M104.6607 109.6607
L102.9465 112.2322
" />
<path d="M107.2322 109.7560
L107.4227 109.7560
" />
<path d="M107.4227 109.7560
L107.6131 109.8512
" />
<path d="M107.6131 109.8512
L107.7084 109.9464
" />
<path d="M107.7084 109.9464
L107.8036 110.1369
" />
<path d="M107.8036 110.1369
L107.8988 110.5179
" />
<path d="M107.8988 110.5179
L107.8988 110.9941
" />
<path d="M107.8988 110.9941
L107.8036 111.3750
" />
<path d="M107.8036 111.3750
L107.7084 111.5655
" />
<path d="M107.7084 111.5655
L107.6131 111.6607
" />
<path d="M107.6131 111.6607
L107.4227 111.7560
" />
<path d="M107.4227 111.7560
L107.2322 111.7560
" />
<path d="M107.2322 111.7560
L107.0417 111.6607
" />
<path d="M107.0417 111.6607
L106.9465 111.5655
" />
<path d="M106.9465 111.5655
L106.8512 111.3750
" />
<path d="M106.8512 111.3750
L106.7560 110.9941
" />
<path d="M106.7560 110.9941
L106.7560 110.5179
" />
<path d="M106.7560 110.5179
L106.8512 110.1369
" />
<path d="M106.8512 110.1369
L106.9465 109.9464
" />
<path d="M106.9465 109.9464
L107.0417 109.8512
" />
<path d="M107.0417 109.8512
L107.2322 109.7560
" />
<path d="M108.7560 111.5655
L108.8512 111.6607
" />
<path d="M108.8512 111.6607
L108.7560 111.7560
" />
<path d="M108.7560 111.7560
L108.6607 111.6607
" />
<path d="M108.6607 111.6607
L108.7560 111.5655
" />
<path d="M108.7560 111.5655
L108.7560 111.7560
" />
<path d="M110.0893 109.7560
L110.2798 109.7560
" />
<path d="M110.2798 109.7560
L110.4703 109.8512
" />
<path d="M110.4703 109.8512
L110.5655 109.9464
" />
<path d="M110.5655 109.9464
L110.6607 110.1369
" />
<path d="M110.6607 110.1369
L110.7560 110.5179
" />
<path d="M110.7560 110.5179
L110.7560 110.9941
" />
<path d="M110.7560 110.9941
L110.6607 111.3750
" />
<path d="M110.6607 111.3750
L110.5655 111.5655
" />
<path d="M110.5655 111.5655
L110.4703 111.6607
" />
<path d="M110.4703 111.6607
L110.2798 111.7560
" />
<path d="M110.2798 111.7560
L110.0893 111.7560
" />
<path d="M110.0893 111.7560
L109.8988 111.6607
" />
<path d="M109.8988 111.6607
L109.8036 111.5655
" />
<path d="M109.8036 111.5655
L109.7084 111.3750
" />
<path d="M109.7084 111.3750
L109.6131 110.9941
" />
<path d="M109.6131 110.9941
L109.6131 110.5179
" />
<path d="M109.6131 110.5179
L109.7084 110.1369
" />
<path d="M109.7084 110.1369
L109.8036 109.9464
" />
<path d="M109.8036 109.9464
L109.8988 109.8512
" />
<path d="M109.8988 109.8512
L110.0893 109.7560
" />
<path d="M112.4703 110.4226
L112.4703 111.7560
" />
<path d="M111.9941 109.6607
L111.5179 111.0893
" />
<path d="M111.5179 111.0893
L112.7560 111.0893
" />
<path d="M113.3274 109.7560
L114.5655 109.7560
" />
<path d="M114.5655 109.7560
L113.8988 110.5179
" />
<path d="M113.8988 110.5179
L114.1846 110.5179
" />
<path d="M114.1846 110.5179
L114.3750 110.6131
" />
<path d="M114.3750 110.6131
L114.4703 110.7083
" />
<path d="M114.4703 110.7083
L114.5655 110.8988
" />
<path d="M114.5655 110.8988
L114.5655 111.3750
" />
<path d="M114.5655 111.3750
L114.4703 111.5655
" />
<path d="M114.4703 111.5655
L114.3750 111.6607
" />
<path d="M114.3750 111.6607
L114.1846 111.7560
" />
<path d="M114.1846 111.7560
L113.6131 111.7560
" />
<path d="M113.6131 111.7560
L113.4227 111.6607
" />
<path d="M113.4227 111.6607
L113.3274 111.5655
" />
<path d="M115.2322 109.7560
L116.4703 109.7560
" />
<path d="M116.4703 109.7560
L115.8036 110.5179
" />
<path d="M115.8036 110.5179
L116.0893 110.5179
" />
<path d="M116.0893 110.5179
L116.2798 110.6131
" />
<path d="M116.2798 110.6131
L116.3750 110.7083
" />
<path d="M116.3750 110.7083
L116.4703 110.8988
" />
<path d="M116.4703 110.8988
L116.4703 111.3750
" />
<path d="M116.4703 111.3750
L116.3750 111.5655
" />
<path d="M116.3750 111.5655
L116.2798 111.6607
" />
<path d="M116.2798 111.6607
L116.0893 111.7560
" />
<path d="M116.0893 111.7560
L115.5179 111.7560
" />
<path d="M115.5179 111.7560
L115.3274 111.6607
" />
<path d="M115.3274 111.6607
L115.2322 111.5655
" />
<path d="M117.2322 109.7560
L117.2322 110.1369
" />
<path d="M117.9941 109.7560
L117.9941 110.1369
" />
<path d="M120.9465 112.5179
L120.8512 112.4226
" />
<path d="M120.8512 112.4226
L120.6608 112.1369
" />
<path d="M120.6608 112.1369
L120.5655 111.9464
" />
<path d="M120.5655 111.9464
L120.4703 111.6607
" />
<path d="M120.4703 111.6607
L120.3750 111.1845
" />
<path d="M120.3750 111.1845
L120.3750 110.8036
" />
<path d="M120.3750 110.8036
L120.4703 110.3274
" />
<path d="M120.4703 110.3274
L120.5655 110.0417
" />
<path d="M120.5655 110.0417
L120.6608 109.8512
" />
<path d="M120.6608 109.8512
L120.8512 109.5655
" />
<path d="M120.8512 109.5655
L120.9465 109.4702
" />
<path d="M122.5655 110.4226
L122.5655 111.7560
" />
<path d="M122.0893 109.6607
L121.6131 111.0893
" />
<path d="M121.6131 111.0893
L122.8512 111.0893
" />
<path d="M125.1370 111.7560
L125.1370 109.7560
" />
<path d="M125.9941 111.7560
L125.9941 110.7083
" />
<path d="M125.9941 110.7083
L125.8989 110.5179
" />
<path d="M125.8989 110.5179
L125.7084 110.4226
" />
<path d="M125.7084 110.4226
L125.4227 110.4226
" />
<path d="M125.4227 110.4226
L125.2322 110.5179
" />
<path d="M125.2322 110.5179
L125.1370 110.6131
" />
<path d="M127.2322 111.7560
L127.0417 111.6607
" />
<path d="M127.0417 111.6607
L126.9465 111.5655
" />
<path d="M126.9465 111.5655
L126.8512 111.3750
" />
<path d="M126.8512 111.3750
L126.8512 110.8036
" />
<path d="M126.8512 110.8036
L126.9465 110.6131
" />
<path d="M126.9465 110.6131
L127.0417 110.5179
" />
<path d="M127.0417 110.5179
L127.2322 110.4226
" />
<path d="M127.2322 110.4226
L127.5179 110.4226
" />
<path d="M127.5179 110.4226
L127.7084 110.5179
" />
<path d="M127.7084 110.5179
L127.8036 110.6131
" />
<path d="M127.8036 110.6131
L127.8989 110.8036
" />
<path d="M127.8989 110.8036
L127.8989 111.3750
" />
<path d="M127.8989 111.3750
L127.8036 111.5655
" />
<path d="M127.8036 111.5655
L127.7084 111.6607
" />
<path d="M127.7084 111.6607
L127.5179 111.7560
" />
<path d="M127.5179 111.7560
L127.2322 111.7560
" />
<path d="M129.0417 111.7560
L128.8512 111.6607
" />
<path d="M128.8512 111.6607
L128.7560 111.4702
" />
<path d="M128.7560 111.4702
L128.7560 109.7560
" />
<path d="M130.5655 111.6607
L130.3750 111.7560
" />
<path d="M130.3750 111.7560
L129.9941 111.7560
" />
<path d="M129.9941 111.7560
L129.8036 111.6607
" />
<path d="M129.8036 111.6607
L129.7084 111.4702
" />
<path d="M129.7084 111.4702
L129.7084 110.7083
" />
<path d="M129.7084 110.7083
L129.8036 110.5179
" />
<path d="M129.8036 110.5179
L129.9941 110.4226
" />
<path d="M129.9941 110.4226
L130.3750 110.4226
" />
<path d="M130.3750 110.4226
L130.5655 110.5179
" />
<path d="M130.5655 110.5179
L130.6608 110.7083
" />
<path d="M130.6608 110.7083
L130.6608 110.8988
" />
<path d="M130.6608 110.8988
L129.7084 111.0893
" />
<path d="M131.4227 111.6607
L131.6131 111.7560
" />
<path d="M131.6131 111.7560
L131.9941 111.7560
" />
<path d="M131.9941 111.7560
L132.1846 111.6607
" />
<path d="M132.1846 111.6607
L132.2798 111.4702
" />
<path d="M132.2798 111.4702
L132.2798 111.3750
" />
<path d="M132.2798 111.3750
L132.1846 111.1845
" />
<path d="M132.1846 111.1845
L131.9941 111.0893
" />
<path d="M131.9941 111.0893
L131.7084 111.0893
" />
<path d="M131.7084 111.0893
L131.5179 110.9941
" />
<path d="M131.5179 110.9941
L131.4227 110.8036
" />
<path d="M131.4227 110.8036
L131.4227 110.7083
" />
<path d="M131.4227 110.7083
L131.5179 110.5179
" />
<path d="M131.5179 110.5179
L131.7084 110.4226
" />
<path d="M131.7084 110.4226
L131.9941 110.4226
" />
<path d="M131.9941 110.4226
L132.1846 110.5179
" />
<path d="M132.9465 112.5179
L133.0417 112.4226
" />
<path d="M133.0417 112.4226
L133.2322 112.1369
" />
<path d="M133.2322 112.1369
L133.3274 111.9464
" />
<path d="M133.3274 111.9464
L133.4227 111.6607
" />
<path d="M133.4227 111.6607
L133.5179 111.1845
" />
<path d="M133.5179 111.1845
L133.5179 110.8036
" />
<path d="M133.5179 110.8036
L133.4227 110.3274
" />
<path d="M133.4227 110.3274
L133.3274 110.0417
" />
<path d="M133.3274 110.0417
L133.2322 109.8512
" />
<path d="M133.2322 109.8512
L133.0417 109.5655
" />
<path d="M133.0417 109.5655
L132.9465 109.4702
" />
</g></g> 
</svg>
