%TF.GenerationSoftware,KiCad,Pcbnew,7.0.2-6a45011f42~172~ubuntu22.04.1*%
%TF.CreationDate,2023-05-13T15:44:37+12:00*%
%TF.ProjectId,KA1119,4b413131-3139-42e6-9b69-6361645f7063,rev?*%
%TF.SameCoordinates,Original*%
%TF.FileFunction,Soldermask,Top*%
%TF.FilePolarity,Negative*%
%FSLAX46Y46*%
G04 Gerber Fmt 4.6, Leading zero omitted, Abs format (unit mm)*
G04 Created by KiCad (PCBNEW 7.0.2-6a45011f42~172~ubuntu22.04.1) date 2023-05-13 15:44:37*
%MOMM*%
%LPD*%
G01*
G04 APERTURE LIST*
G04 Aperture macros list*
%AMRoundRect*
0 Rectangle with rounded corners*
0 $1 Rounding radius*
0 $2 $3 $4 $5 $6 $7 $8 $9 X,Y pos of 4 corners*
0 Add a 4 corners polygon primitive as box body*
4,1,4,$2,$3,$4,$5,$6,$7,$8,$9,$2,$3,0*
0 Add four circle primitives for the rounded corners*
1,1,$1+$1,$2,$3*
1,1,$1+$1,$4,$5*
1,1,$1+$1,$6,$7*
1,1,$1+$1,$8,$9*
0 Add four rect primitives between the rounded corners*
20,1,$1+$1,$2,$3,$4,$5,0*
20,1,$1+$1,$4,$5,$6,$7,0*
20,1,$1+$1,$6,$7,$8,$9,0*
20,1,$1+$1,$8,$9,$2,$3,0*%
G04 Aperture macros list end*
%ADD10R,1.000000X1.600000*%
%ADD11C,2.000000*%
%ADD12R,1.200000X1.200000*%
%ADD13C,1.200000*%
%ADD14R,1.000000X1.000000*%
%ADD15O,1.000000X1.000000*%
%ADD16RoundRect,0.150000X-0.150000X0.825000X-0.150000X-0.825000X0.150000X-0.825000X0.150000X0.825000X0*%
%ADD17RoundRect,0.237500X-0.250000X-0.237500X0.250000X-0.237500X0.250000X0.237500X-0.250000X0.237500X0*%
%ADD18RoundRect,0.237500X-0.237500X0.250000X-0.237500X-0.250000X0.237500X-0.250000X0.237500X0.250000X0*%
%ADD19RoundRect,0.237500X0.237500X-0.250000X0.237500X0.250000X-0.237500X0.250000X-0.237500X-0.250000X0*%
%ADD20RoundRect,0.250000X-0.250000X0.250000X-0.250000X-0.250000X0.250000X-0.250000X0.250000X0.250000X0*%
%ADD21RoundRect,0.250000X0.250000X-0.250000X0.250000X0.250000X-0.250000X0.250000X-0.250000X-0.250000X0*%
%ADD22RoundRect,0.237500X0.237500X-0.287500X0.237500X0.287500X-0.237500X0.287500X-0.237500X-0.287500X0*%
%ADD23RoundRect,0.237500X-0.237500X0.287500X-0.237500X-0.287500X0.237500X-0.287500X0.237500X0.287500X0*%
G04 APERTURE END LIST*
D10*
%TO.C,SW2*%
X186810000Y-95210000D03*
X184310000Y-95210000D03*
X181810000Y-95210000D03*
X186810000Y-92810000D03*
X184310000Y-92810000D03*
X181810000Y-92810000D03*
%TD*%
D11*
%TO.C,SW1*%
X167640000Y-100400000D03*
X174140000Y-100400000D03*
X167640000Y-95900000D03*
X174140000Y-95900000D03*
%TD*%
D12*
%TO.C,C2*%
X162640000Y-88990000D03*
D13*
X164140000Y-88990000D03*
%TD*%
D12*
%TO.C,C1*%
X178120000Y-99320000D03*
D13*
X179620000Y-99320000D03*
%TD*%
D14*
%TO.C,9v*%
X164270000Y-100470000D03*
D15*
X164270000Y-99200000D03*
%TD*%
D16*
%TO.C,U3*%
X174710000Y-86200000D03*
X173440000Y-86200000D03*
X172170000Y-86200000D03*
X170900000Y-86200000D03*
X169630000Y-86200000D03*
X168360000Y-86200000D03*
X167090000Y-86200000D03*
X167090000Y-91150000D03*
X168360000Y-91150000D03*
X169630000Y-91150000D03*
X170900000Y-91150000D03*
X172170000Y-91150000D03*
X173440000Y-91150000D03*
X174710000Y-91150000D03*
%TD*%
D17*
%TO.C,R5*%
X190027500Y-98770000D03*
X191852500Y-98770000D03*
%TD*%
%TO.C,R4*%
X190027500Y-102290000D03*
X191852500Y-102290000D03*
%TD*%
D18*
%TO.C,R3*%
X186820000Y-88707500D03*
X186820000Y-90532500D03*
%TD*%
%TO.C,R2*%
X177250000Y-92967500D03*
X177250000Y-94792500D03*
%TD*%
D19*
%TO.C,R1*%
X188960000Y-87752500D03*
X188960000Y-85927500D03*
%TD*%
D15*
%TO.C,J1*%
X197600000Y-90900000D03*
X197600000Y-89630000D03*
D14*
X197600000Y-88360000D03*
%TD*%
D20*
%TO.C,D6*%
X198340000Y-99770000D03*
X198340000Y-102270000D03*
%TD*%
D21*
%TO.C,D5*%
X194540000Y-102225000D03*
X194540000Y-99725000D03*
%TD*%
D20*
%TO.C,D4*%
X198340000Y-95352500D03*
X198340000Y-97852500D03*
%TD*%
D21*
%TO.C,D3*%
X194540000Y-97807500D03*
X194540000Y-95307500D03*
%TD*%
D22*
%TO.C,D2*%
X194400000Y-90510000D03*
X194400000Y-88760000D03*
%TD*%
D23*
%TO.C,D1*%
X191150000Y-88760000D03*
X191150000Y-90510000D03*
%TD*%
M02*
